<svg width="243" height="62" viewBox="0 0 243 62" fill="none" xmlns="http://www.w3.org/2000/svg">
<mask id="path-1-outside-1_17934_18670" maskUnits="userSpaceOnUse" x="0" y="0.220459" width="243" height="62" fill="black">
<rect fill="white" y="0.220459" width="243" height="62"/>
<path d="M11.7239 24.9868C11.7239 13.804 14.1166 6.94132 21.2047 6.94132C27.142 6.94132 31.6619 11.2543 36.093 19.1764L38.3968 3.15684C36.3585 2.27635 32.3706 1.22046 27.763 1.22046C11.2807 1.22046 1 14.2513 1 31.4998C1 50.7777 11.7239 60.8104 23.2442 60.8104C31.4854 60.8104 37.9548 55.5298 38.9289 48.135C36.3597 49.7195 33.6126 51.0402 29.8037 51.0402C19.6996 51.0414 11.7239 42.1493 11.7239 24.9868Z"/>
<path d="M58.3372 14.2509C46.9947 14.2509 39.2844 23.2254 39.2844 37.5734C39.2844 51.393 46.9058 60.5475 57.5349 60.5475C68.8786 60.5475 76.5876 51.5696 76.5876 37.3098C76.5924 23.3148 68.8833 14.2509 58.3372 14.2509ZM58.7804 56.59C53.4629 56.59 51.0702 45.4073 51.0702 33.8796C51.0702 24.1094 52.7542 18.212 57.0964 18.212C62.4139 18.212 64.8066 29.4783 64.8066 41.0095C64.8066 50.9527 63.0337 56.5865 58.7804 56.5865V56.59Z"/>
<path d="M113.546 26.835C113.546 18.5609 109.913 14.4233 103.886 14.4233C99.0121 14.4233 94.4056 16.9765 91.4796 22.522C91.3919 19.8816 90.5055 16.3597 89.5301 14.2479C85.9855 16.0077 82.1742 17.6804 78.453 19.2648C80.4025 23.2259 80.4914 26.835 80.4914 31.7648V46.6402C80.4914 51.5701 80.3136 54.826 78.453 59.4922H93.518C91.5685 54.826 91.4796 51.5701 91.4796 46.6402V25.081C93.6957 22.4396 95.9995 21.6473 97.7713 21.6473C101.05 21.6473 102.557 23.5837 102.557 28.5136V45.0558C102.557 50.513 102.823 55.6182 103.71 59.4922H115.939C114.161 54.3869 113.546 50.513 113.546 44.7921V26.835Z"/>
<path d="M141.904 18.297L142.347 15.2153H132.156V2.4528C128.522 4.65286 124.712 6.58924 120.724 8.08537C120.99 11.0788 121.08 13.2789 121.167 15.2153H116.56L116.117 18.297H121.169V48.401C121.169 56.9387 125.156 60.4595 130.562 60.4595C137.209 60.4595 142.083 55.3543 142.083 49.4569C140.221 50.8694 138.537 51.7452 136.588 51.7452C132.157 51.7452 132.157 46.9037 132.157 44.7036V18.297H141.904Z"/>
<path d="M167.603 51.0412C158.122 51.0412 154.664 45.7594 153.868 37.3971H177.174V30.9723C177.174 21.9931 172.566 14.3359 161.931 14.3359C149.259 14.3359 142.878 25.0748 142.878 37.8373C142.878 51.4814 150.588 60.636 161.665 60.636C171.236 60.636 176.022 53.9464 176.908 48.4009C174.161 50.0724 171.591 51.0412 167.603 51.0412ZM153.69 32.8204C153.69 22.7853 156.259 18.2086 160.247 18.2086C163.704 18.2086 166.008 21.8177 166.008 31.0594C166.008 34.4048 165.564 34.7568 162.817 34.7568H153.692L153.69 32.8204Z"/>
<path d="M231.053 44.7036V18.297H240.801L241.245 15.2153H231.053V2.4528C227.419 4.65286 223.609 6.58924 219.621 8.08537C219.887 11.0788 219.977 13.2789 220.065 15.2153H203.403C203.935 16.0075 204.47 17.3282 204.47 19.0009C204.47 20.4135 204.114 21.9932 203.229 23.6659L198.798 32.0235L194.539 22.7854C193.902 21.3111 193.57 19.7246 193.564 18.1204C193.564 16.888 193.829 15.9204 194.183 15.2153H175.755C177.793 17.5048 179.122 19.1763 181.338 23.0503L189.934 38.2776L181.958 50.953C179.832 54.4738 177.881 57.1153 175.577 59.4919H186.567C186.035 58.6114 185.591 57.2907 185.591 55.7063C185.608 54.3949 185.911 53.1028 186.48 51.9194L191.62 41.7961L196.493 51.9194C197.08 53.1269 197.383 54.4512 197.38 55.7922C197.38 57.2883 197.024 58.6974 196.405 59.4896H215.193C212.889 57.6403 211.47 55.2637 209.432 51.6546L200.482 35.635L208.015 23.7518C209.342 21.6718 210.464 19.8284 211.688 18.2499V18.2946H220.076V48.401C220.076 56.9387 224.064 60.4595 229.469 60.4595C236.116 60.4595 240.99 55.3543 240.99 49.4569C239.129 50.8694 237.445 51.7452 235.496 51.7452C231.053 51.7452 231.053 46.9037 231.053 44.7036Z"/>
</mask>
<path d="M11.7239 24.9868C11.7239 13.804 14.1166 6.94132 21.2047 6.94132C27.142 6.94132 31.6619 11.2543 36.093 19.1764L38.3968 3.15684C36.3585 2.27635 32.3706 1.22046 27.763 1.22046C11.2807 1.22046 1 14.2513 1 31.4998C1 50.7777 11.7239 60.8104 23.2442 60.8104C31.4854 60.8104 37.9548 55.5298 38.9289 48.135C36.3597 49.7195 33.6126 51.0402 29.8037 51.0402C19.6996 51.0414 11.7239 42.1493 11.7239 24.9868Z" fill="white"/>
<path d="M58.3372 14.2509C46.9947 14.2509 39.2844 23.2254 39.2844 37.5734C39.2844 51.393 46.9058 60.5475 57.5349 60.5475C68.8786 60.5475 76.5876 51.5696 76.5876 37.3098C76.5924 23.3148 68.8833 14.2509 58.3372 14.2509ZM58.7804 56.59C53.4629 56.59 51.0702 45.4073 51.0702 33.8796C51.0702 24.1094 52.7542 18.212 57.0964 18.212C62.4139 18.212 64.8066 29.4783 64.8066 41.0095C64.8066 50.9527 63.0337 56.5865 58.7804 56.5865V56.59Z" fill="white"/>
<path d="M113.546 26.835C113.546 18.5609 109.913 14.4233 103.886 14.4233C99.0121 14.4233 94.4056 16.9765 91.4796 22.522C91.3919 19.8816 90.5055 16.3597 89.5301 14.2479C85.9855 16.0077 82.1742 17.6804 78.453 19.2648C80.4025 23.2259 80.4914 26.835 80.4914 31.7648V46.6402C80.4914 51.5701 80.3136 54.826 78.453 59.4922H93.518C91.5685 54.826 91.4796 51.5701 91.4796 46.6402V25.081C93.6957 22.4396 95.9995 21.6473 97.7713 21.6473C101.05 21.6473 102.557 23.5837 102.557 28.5136V45.0558C102.557 50.513 102.823 55.6182 103.71 59.4922H115.939C114.161 54.3869 113.546 50.513 113.546 44.7921V26.835Z" fill="white"/>
<path d="M141.904 18.297L142.347 15.2153H132.156V2.4528C128.522 4.65286 124.712 6.58924 120.724 8.08537C120.99 11.0788 121.08 13.2789 121.167 15.2153H116.56L116.117 18.297H121.169V48.401C121.169 56.9387 125.156 60.4595 130.562 60.4595C137.209 60.4595 142.083 55.3543 142.083 49.4569C140.221 50.8694 138.537 51.7452 136.588 51.7452C132.157 51.7452 132.157 46.9037 132.157 44.7036V18.297H141.904Z" fill="white"/>
<path d="M167.603 51.0412C158.122 51.0412 154.664 45.7594 153.868 37.3971H177.174V30.9723C177.174 21.9931 172.566 14.3359 161.931 14.3359C149.259 14.3359 142.878 25.0748 142.878 37.8373C142.878 51.4814 150.588 60.636 161.665 60.636C171.236 60.636 176.022 53.9464 176.908 48.4009C174.161 50.0724 171.591 51.0412 167.603 51.0412ZM153.69 32.8204C153.69 22.7853 156.259 18.2086 160.247 18.2086C163.704 18.2086 166.008 21.8177 166.008 31.0594C166.008 34.4048 165.564 34.7568 162.817 34.7568H153.692L153.69 32.8204Z" fill="white"/>
<path d="M231.053 44.7036V18.297H240.801L241.245 15.2153H231.053V2.4528C227.419 4.65286 223.609 6.58924 219.621 8.08537C219.887 11.0788 219.977 13.2789 220.065 15.2153H203.403C203.935 16.0075 204.47 17.3282 204.47 19.0009C204.47 20.4135 204.114 21.9932 203.229 23.6659L198.798 32.0235L194.539 22.7854C193.902 21.3111 193.57 19.7246 193.564 18.1204C193.564 16.888 193.829 15.9204 194.183 15.2153H175.755C177.793 17.5048 179.122 19.1763 181.338 23.0503L189.934 38.2776L181.958 50.953C179.832 54.4738 177.881 57.1153 175.577 59.4919H186.567C186.035 58.6114 185.591 57.2907 185.591 55.7063C185.608 54.3949 185.911 53.1028 186.48 51.9194L191.62 41.7961L196.493 51.9194C197.08 53.1269 197.383 54.4512 197.38 55.7922C197.38 57.2883 197.024 58.6974 196.405 59.4896H215.193C212.889 57.6403 211.47 55.2637 209.432 51.6546L200.482 35.635L208.015 23.7518C209.342 21.6718 210.464 19.8284 211.688 18.2499V18.2946H220.076V48.401C220.076 56.9387 224.064 60.4595 229.469 60.4595C236.116 60.4595 240.99 55.3543 240.99 49.4569C239.129 50.8694 237.445 51.7452 235.496 51.7452C231.053 51.7452 231.053 46.9037 231.053 44.7036Z" fill="white"/>
<path d="M11.7239 24.9868C11.7239 13.804 14.1166 6.94132 21.2047 6.94132C27.142 6.94132 31.6619 11.2543 36.093 19.1764L38.3968 3.15684C36.3585 2.27635 32.3706 1.22046 27.763 1.22046C11.2807 1.22046 1 14.2513 1 31.4998C1 50.7777 11.7239 60.8104 23.2442 60.8104C31.4854 60.8104 37.9548 55.5298 38.9289 48.135C36.3597 49.7195 33.6126 51.0402 29.8037 51.0402C19.6996 51.0414 11.7239 42.1493 11.7239 24.9868Z" stroke="#042D52" stroke-width="2" mask="url(#path-1-outside-1_17934_18670)"/>
<path d="M58.3372 14.2509C46.9947 14.2509 39.2844 23.2254 39.2844 37.5734C39.2844 51.393 46.9058 60.5475 57.5349 60.5475C68.8786 60.5475 76.5876 51.5696 76.5876 37.3098C76.5924 23.3148 68.8833 14.2509 58.3372 14.2509ZM58.7804 56.59C53.4629 56.59 51.0702 45.4073 51.0702 33.8796C51.0702 24.1094 52.7542 18.212 57.0964 18.212C62.4139 18.212 64.8066 29.4783 64.8066 41.0095C64.8066 50.9527 63.0337 56.5865 58.7804 56.5865V56.59Z" stroke="#042D52" stroke-width="2" mask="url(#path-1-outside-1_17934_18670)"/>
<path d="M113.546 26.835C113.546 18.5609 109.913 14.4233 103.886 14.4233C99.0121 14.4233 94.4056 16.9765 91.4796 22.522C91.3919 19.8816 90.5055 16.3597 89.5301 14.2479C85.9855 16.0077 82.1742 17.6804 78.453 19.2648C80.4025 23.2259 80.4914 26.835 80.4914 31.7648V46.6402C80.4914 51.5701 80.3136 54.826 78.453 59.4922H93.518C91.5685 54.826 91.4796 51.5701 91.4796 46.6402V25.081C93.6957 22.4396 95.9995 21.6473 97.7713 21.6473C101.05 21.6473 102.557 23.5837 102.557 28.5136V45.0558C102.557 50.513 102.823 55.6182 103.71 59.4922H115.939C114.161 54.3869 113.546 50.513 113.546 44.7921V26.835Z" stroke="#042D52" stroke-width="2" mask="url(#path-1-outside-1_17934_18670)"/>
<path d="M141.904 18.297L142.347 15.2153H132.156V2.4528C128.522 4.65286 124.712 6.58924 120.724 8.08537C120.99 11.0788 121.08 13.2789 121.167 15.2153H116.56L116.117 18.297H121.169V48.401C121.169 56.9387 125.156 60.4595 130.562 60.4595C137.209 60.4595 142.083 55.3543 142.083 49.4569C140.221 50.8694 138.537 51.7452 136.588 51.7452C132.157 51.7452 132.157 46.9037 132.157 44.7036V18.297H141.904Z" stroke="#042D52" stroke-width="2" mask="url(#path-1-outside-1_17934_18670)"/>
<path d="M167.603 51.0412C158.122 51.0412 154.664 45.7594 153.868 37.3971H177.174V30.9723C177.174 21.9931 172.566 14.3359 161.931 14.3359C149.259 14.3359 142.878 25.0748 142.878 37.8373C142.878 51.4814 150.588 60.636 161.665 60.636C171.236 60.636 176.022 53.9464 176.908 48.4009C174.161 50.0724 171.591 51.0412 167.603 51.0412ZM153.69 32.8204C153.69 22.7853 156.259 18.2086 160.247 18.2086C163.704 18.2086 166.008 21.8177 166.008 31.0594C166.008 34.4048 165.564 34.7568 162.817 34.7568H153.692L153.69 32.8204Z" stroke="#042D52" stroke-width="2" mask="url(#path-1-outside-1_17934_18670)"/>
<path d="M231.053 44.7036V18.297H240.801L241.245 15.2153H231.053V2.4528C227.419 4.65286 223.609 6.58924 219.621 8.08537C219.887 11.0788 219.977 13.2789 220.065 15.2153H203.403C203.935 16.0075 204.47 17.3282 204.47 19.0009C204.47 20.4135 204.114 21.9932 203.229 23.6659L198.798 32.0235L194.539 22.7854C193.902 21.3111 193.57 19.7246 193.564 18.1204C193.564 16.888 193.829 15.9204 194.183 15.2153H175.755C177.793 17.5048 179.122 19.1763 181.338 23.0503L189.934 38.2776L181.958 50.953C179.832 54.4738 177.881 57.1153 175.577 59.4919H186.567C186.035 58.6114 185.591 57.2907 185.591 55.7063C185.608 54.3949 185.911 53.1028 186.48 51.9194L191.62 41.7961L196.493 51.9194C197.08 53.1269 197.383 54.4512 197.38 55.7922C197.38 57.2883 197.024 58.6974 196.405 59.4896H215.193C212.889 57.6403 211.47 55.2637 209.432 51.6546L200.482 35.635L208.015 23.7518C209.342 21.6718 210.464 19.8284 211.688 18.2499V18.2946H220.076V48.401C220.076 56.9387 224.064 60.4595 229.469 60.4595C236.116 60.4595 240.99 55.3543 240.99 49.4569C239.129 50.8694 237.445 51.7452 235.496 51.7452C231.053 51.7452 231.053 46.9037 231.053 44.7036Z" stroke="#042D52" stroke-width="2" mask="url(#path-1-outside-1_17934_18670)"/>
</svg>
