<?xml version="1.0" encoding="UTF-8"?>
<svg xmlns="http://www.w3.org/2000/svg" id="_图层_2" viewBox="0 0 676.21 147.42">
  <defs>
    <style>.cls-1,.cls-2{fill:#114574;}.cls-2{fill-rule:evenodd;}</style>
  </defs>
  <g id="Layer_1">
    <path class="cls-1" d="m261.75,43.49c8.31,0,15.42,2.95,21.35,8.84,5.89,5.93,8.84,13.05,8.84,21.35l-.11,3.13h-48.96c.73,4.32,2.73,7.96,5.98,10.92,3.62,3.37,7.92,5.05,12.9,5.05,3.59,0,6.92-.95,9.99-2.85,2.96-1.83,5.45-4.67,7.47-8.51l10.21,4.45c-2.96,5.89-6.82,10.36-11.58,13.39-4.9,3.11-10.26,4.67-16.08,4.67-8.31,0-15.42-2.94-21.35-8.84-5.93-5.93-8.89-13.06-8.89-21.41s2.96-15.42,8.89-21.35c5.93-5.89,13.05-8.84,21.35-8.84Zm17.35,22.18c-1.32-2.78-3.39-5.25-6.2-7.41-3.33-2.42-7.04-3.62-11.14-3.62s-7.85,1.21-11.14,3.62c-2.45,1.65-4.54,4.12-6.26,7.41h34.75Z"></path>
    <path class="cls-1" d="m391.79,43.49c8.31,0,15.42,2.95,21.35,8.84,5.89,5.93,8.84,13.05,8.84,21.35l-.11,3.13h-48.96c.73,4.32,2.73,7.96,5.98,10.92,3.62,3.37,7.92,5.05,12.9,5.05,3.59,0,6.92-.95,9.99-2.85,2.96-1.83,5.45-4.67,7.47-8.51l10.21,4.45c-2.96,5.89-6.82,10.36-11.58,13.39-4.9,3.11-10.26,4.67-16.08,4.67-8.31,0-15.42-2.94-21.35-8.84-5.93-5.93-8.89-13.06-8.89-21.41s2.96-15.42,8.89-21.35c5.93-5.89,13.05-8.84,21.35-8.84Zm17.35,22.18c-1.32-2.78-3.39-5.25-6.2-7.41-3.33-2.42-7.04-3.62-11.14-3.62s-7.85,1.21-11.14,3.62c-2.45,1.65-4.54,4.12-6.26,7.41h34.75Z"></path>
    <path class="cls-1" d="m487.02,85.87c-2.96,5.89-6.82,10.36-11.58,13.39-4.9,3.11-10.26,4.67-16.08,4.67-8.31,0-15.44-2.94-21.41-8.84-5.89-5.93-8.84-13.06-8.84-21.41s2.95-15.42,8.84-21.35c5.96-5.89,13.1-8.84,21.41-8.84,5.82,0,11.18,1.56,16.08,4.67,4.76,3.04,8.62,7.48,11.58,13.34l-10.21,4.45c-2.01-3.81-4.5-6.64-7.47-8.51-3.07-1.87-6.4-2.8-9.99-2.8-5.27,0-9.75,1.87-13.45,5.6-3.77,3.7-5.65,8.18-5.65,13.45s1.88,9.77,5.65,13.5c3.7,3.73,8.18,5.6,13.45,5.6,3.59,0,6.92-.95,9.99-2.85,2.96-1.83,5.45-4.67,7.47-8.51l10.21,4.45Z"></path>
    <path class="cls-1" d="m524.33,103.93c-8.31,0-15.42-2.94-21.35-8.84-5.89-5.93-8.84-13.05-8.84-21.35s2.95-15.48,8.84-21.41c5.93-5.89,13.05-8.84,21.35-8.84s14.75,2.18,19.1,6.53v-5.82h11.14v58.95h-11.14v-5.76c-4.35,4.36-10.72,6.53-19.1,6.53Zm0-49.29c-5.27,0-9.75,1.89-13.45,5.65-3.73,3.7-5.6,8.18-5.6,13.45s1.87,9.75,5.6,13.45c3.7,3.73,8.18,5.6,13.45,5.6s9.77-1.87,13.5-5.6c3.73-3.7,5.6-8.18,5.6-13.45s-1.87-9.75-5.6-13.45c-3.73-3.77-8.23-5.65-13.5-5.65Z"></path>
    <path class="cls-1" d="m598.3,60.53v5.33h-23.17V27.86h23.17v5.32h-17.85v10.91h14.39v5.32h-14.39v11.11h17.85Z"></path>
    <path class="cls-1" d="m618.12,66.54c-3.14,0-5.99-.74-8.55-2.23-3.11-1.81-5.22-4.63-6.35-8.45l5.07-1.48c.73,2.53,2.08,4.34,4.04,5.45,1.69.96,3.63,1.43,5.81,1.43.34,0,.63,0,.87-.03.24-.02.53-.06.87-.13.96-.14,1.82-.38,2.59-.74,2.15-.99,3.32-2.68,3.51-5.07.09-1.21-.27-2.29-1.08-3.23-1.31-1.54-3.47-2.4-6.48-2.59-5.46-.38-9.45-1.67-11.96-3.89-1.95-1.76-2.92-4-2.92-6.73,0-3.64,1.44-6.55,4.33-8.76,2.54-1.96,5.63-2.94,9.27-2.94,4.3,0,7.89,1.53,10.78,4.58.91.97,1.7,2.05,2.38,3.23.32.63.68,1.37,1.07,2.23l-4.94,1.87c-.38-.84-.71-1.51-1-2.01s-.74-1.06-1.36-1.68c-1.88-1.96-4.19-2.94-6.94-2.94-.84,0-1.69.1-2.56.31-1.04.24-1.96.59-2.74,1.05-2.01,1.14-3.02,2.83-3.02,5.07,0,3.14,3.33,4.92,9.98,5.35,4.44.31,7.8,1.78,10.09,4.43,1.77,2.05,2.56,4.4,2.35,7.07-.29,3.53-1.8,6.28-4.53,8.24-2.39,1.72-5.24,2.59-8.55,2.59h-.05Z"></path>
    <path class="cls-1" d="m676.21,46.19c0,3.11-.52,5.88-1.56,8.32-.99,2.36-2.39,4.45-4.2,6.27-1.84,1.81-3.94,3.21-6.27,4.2-2.44,1.04-5,1.56-7.68,1.56s-5.21-.52-7.66-1.56c-2.35-.99-4.45-2.39-6.27-4.2-1.81-1.83-3.21-3.92-4.2-6.27-1.04-2.44-1.56-4.99-1.56-7.65s.52-5.24,1.56-7.68c.99-2.34,2.39-4.43,4.2-6.27,1.83-1.81,3.92-3.21,6.27-4.2,2.44-1.04,4.99-1.56,7.66-1.56,4.23,0,8.07,1.24,11.52,3.71,3.34,2.41,5.79,5.84,7.35,10.29h-5.84c-1.28-2.7-3.06-4.78-5.35-6.25-2.32-1.52-4.88-2.28-7.68-2.28-3.93,0-7.27,1.39-10.04,4.17-2.78,2.78-4.17,6.14-4.17,10.06s1.39,7.27,4.17,10.04c2.76,2.78,6.11,4.17,10.04,4.17,3.21,0,6.08-.96,8.6-2.89,2.48-1.89,4.08-4.06,4.81-6.5h-14v-5.48h20.3Z"></path>
    <path class="cls-1" d="m198.18,103.93c-6.13-.04-11.69-1.21-16.67-3.51-6.04-2.85-10.2-7.41-12.49-13.67l13.38-3.07c1.28,3.48,3.45,5.91,6.52,7.3,2.7,1.17,5.81,1.78,9.33,1.81.41,0,.88-.02,1.41-.05.53-.04,1.09-.09,1.68-.16,1.42-.18,2.7-.49,3.84-.93,3.02-1.13,4.69-3.09,5.01-5.87.09-1.24-.39-2.36-1.44-3.35-1.97-1.87-5.35-2.91-10.16-3.13-10.93-.58-18.82-2.82-23.67-6.7-1.97-1.57-3.39-3.38-4.25-5.43-.64-1.57-.96-3.24-.96-5,0-5.78,2.84-10.45,8.51-14,4.99-3.11,11.05-4.67,18.18-4.67,8.42,0,15.44,2.4,21.07,7.19,2.7,2.2,5.01,5.16,6.93,8.89l-12.97,3.9-1.65-2.53c-.69-.95-1.49-1.83-2.4-2.63-3.02-2.45-6.72-3.68-11.12-3.68-.87.04-1.6.09-2.2.16-1.51.15-2.95.44-4.32.88-4.07,1.28-6.11,3.44-6.11,6.48,0,1.79,1.58,3.22,4.73,4.28,2.74.88,6.47,1.45,11.18,1.7,4.8.26,9.01,1.13,12.63,2.63,2.84,1.13,5.21,2.6,7.14,4.39,3.61,3.33,5.19,7.16,4.73,11.47-.55,5.6-3.52,9.97-8.92,13.12-4.71,2.78-10.34,4.17-16.88,4.17h-.07Z"></path>
    <path class="cls-1" d="m354.43,103.16h-12.6v-35.19c0-3.7-1.47-6.82-4.41-9.39-2.94-2.63-6.5-3.95-10.67-3.95s-7.74,1.32-10.67,3.95c-2.94,2.56-4.41,5.69-4.41,9.39v35.19h-12.6v-58.95h12.6v3.18c4.47-2.63,9.5-3.93,15.08-3.9,7.61,0,14.15,2.38,19.61,7.14,5.38,4.83,8.07,10.61,8.07,17.35v35.19Z"></path>
    <path class="cls-2" d="m21.59,21.59c-28.79,28.79-28.79,75.46,0,104.25,28.79,28.79,75.46,28.79,104.25,0,28.79-28.79,28.79-75.46,0-104.25-28.79-28.79-75.46-28.79-104.25,0h0Zm-9.28,62.32c7.06,12.22,18.78,21.05,32.48,24.49,18.78,4.71,38.7-1.39,51.63-15.89,4.65-4.65-1.4-10.95-6.02-6.33-13.56,15.41-36.11,19.34-54.01,9.24C10.2,80.64,7.36,49.08,28.22,28.22c25.13-25.12,65.87-25.13,90.99,0,10.05,10.05,16.48,23.06,18.3,37.15l.74,5.66-2.76-5c-6.99-12.65-18.93-21.84-32.97-25.36-18.79-4.71-38.71,1.43-51.61,15.87-4.9,5.49,1.92,11.03,6.1,6.25,13.49-15.43,36.09-19.19,53.91-9.14,25.88,14.6,29.03,44.8,8.29,65.55-25.13,25.13-65.86,25.13-90.99,0-9.42-9.42-15.67-21.45-17.92-34.57l-1.02-5.98,3.03,5.25h0Z"></path>
  </g>
</svg>
