<svg width="206" height="43" viewBox="0 0 206 43" fill="none" xmlns="http://www.w3.org/2000/svg">
<path d="M33.7226 27.4586C32.7649 26.9455 32.0123 26.1929 31.4992 25.2352C30.9519 24.2774 30.6783 23.1486 30.6783 21.8829C30.6783 20.6173 30.9519 19.5227 31.4992 18.5307C32.0465 17.5729 32.7991 16.8204 33.7911 16.3073C34.7488 15.7942 35.8434 15.5205 37.0065 15.5205C38.2037 15.5205 39.2641 15.7942 40.2219 16.3073C41.1797 16.8204 41.9322 17.5729 42.5137 18.5307C43.061 19.4885 43.3347 20.6173 43.3347 21.8829C43.3347 23.1486 43.061 24.2432 42.4795 25.2352C41.898 26.1929 41.1454 26.9455 40.1535 27.4586C39.1957 27.9717 38.1011 28.2453 36.9038 28.2453C35.7408 28.2453 34.6804 27.9717 33.7226 27.4586ZM38.5458 25.0983C39.0589 24.8247 39.4351 24.4142 39.743 23.8669C40.0508 23.3196 40.1877 22.6355 40.1877 21.8487C40.1877 20.6857 39.8798 19.7621 39.2641 19.1464C38.6484 18.5307 37.8958 18.1886 37.0065 18.1886C36.1171 18.1886 35.3646 18.4965 34.783 19.1464C34.1673 19.7621 33.8937 20.6857 33.8937 21.8487C33.8937 23.0117 34.2015 23.9353 34.783 24.551C35.3646 25.1667 36.1171 25.5088 37.0065 25.5088C37.5196 25.543 38.0327 25.4062 38.5458 25.0983Z" fill="#73DD82"/>
<path d="M56.0595 16.9227C56.9488 17.8463 57.4277 19.1461 57.4277 20.8222V28.0398H54.3149V21.2327C54.3149 20.2407 54.0755 19.4882 53.5966 18.9751C53.1177 18.462 52.4336 18.1883 51.5784 18.1883C50.7233 18.1883 50.0391 18.462 49.526 18.9751C49.0129 19.4882 48.7735 20.2407 48.7735 21.2327V28.0398H45.6607V15.7255H48.7735V17.2648C49.184 16.7175 49.7313 16.307 50.3812 15.9991C51.0311 15.6913 51.7495 15.5544 52.502 15.5544C53.9729 15.5202 55.1701 15.9991 56.0595 16.9227Z" fill="#73DD82"/>
<path d="M71.7602 22.8065H62.7639C62.8323 23.6959 63.1402 24.38 63.6875 24.8931C64.2348 25.4062 64.9189 25.6456 65.7057 25.6456C66.8687 25.6456 67.6896 25.1325 68.1685 24.1405H71.5208C71.1787 25.3378 70.4946 26.2956 69.4684 27.0823C68.4422 27.8348 67.2107 28.2453 65.7399 28.2453C64.5426 28.2453 63.4822 27.9717 62.5587 27.4586C61.6009 26.9455 60.8825 26.1929 60.3694 25.2352C59.8563 24.2774 59.5827 23.1486 59.5827 21.8829C59.5827 20.6173 59.8563 19.4885 60.3694 18.5307C60.8825 17.5729 61.6009 16.8204 62.5587 16.3073C63.4822 15.7942 64.5768 15.5205 65.7741 15.5205C66.9371 15.5205 67.9975 15.76 68.9211 16.273C69.8446 16.7861 70.563 17.5045 71.0761 18.4281C71.5892 19.3516 71.8286 20.412 71.8286 21.6093C71.8286 22.0539 71.7944 22.4644 71.7602 22.8065ZM68.6132 20.7199C68.6132 19.9331 68.3054 19.2832 67.758 18.8043C67.2107 18.3254 66.4924 18.086 65.7057 18.086C64.9189 18.086 64.269 18.3254 63.7559 18.7701C63.2428 19.249 62.9007 19.8989 62.7981 20.7199H68.6132Z" fill="#73DD82"/>
<path d="M85.8875 15.7256L78.2594 33.8892H74.9414L77.6095 27.7321L72.6838 15.7256H76.1728L79.354 24.3456L82.5694 15.7256H85.8875Z" fill="#73DD82"/>
<path d="M109.422 12.5103L105.077 28.04H101.417L98.5097 16.9913L95.4653 28.04L91.8052 28.0742L87.632 12.5103H90.9843L93.7208 24.5851L96.8678 12.5103H100.323L103.299 24.5167L106.069 12.5103H109.422Z" fill="#6AE2E5"/>
<path d="M113.697 27.4586C112.74 26.9455 111.987 26.1929 111.474 25.2352C110.927 24.2774 110.653 23.1486 110.653 21.8829C110.653 20.6173 110.927 19.5227 111.474 18.5307C112.021 17.5729 112.774 16.8204 113.766 16.3073C114.724 15.7942 115.818 15.5205 116.981 15.5205C118.179 15.5205 119.239 15.7942 120.197 16.3073C121.154 16.8204 121.907 17.5729 122.489 18.5307C123.036 19.4885 123.309 20.6173 123.309 21.8829C123.309 23.1486 123.036 24.2432 122.454 25.2352C121.873 26.1929 121.12 26.9455 120.128 27.4586C119.171 27.9717 118.076 28.2453 116.879 28.2453C115.716 28.2453 114.655 27.9717 113.697 27.4586ZM118.521 25.0983C119.034 24.8247 119.41 24.4142 119.718 23.8669C120.026 23.3196 120.163 22.6355 120.163 21.8487C120.163 20.6857 119.855 19.7621 119.239 19.1464C118.623 18.5307 117.871 18.1886 116.981 18.1886C116.092 18.1886 115.339 18.4965 114.758 19.1464C114.142 19.7621 113.869 20.6857 113.869 21.8487C113.869 23.0117 114.176 23.9353 114.758 24.551C115.339 25.1667 116.092 25.5088 116.981 25.5088C117.494 25.543 118.007 25.4062 118.521 25.0983Z" fill="#6AE2E5"/>
<path d="M130.322 16.102C130.972 15.7257 131.69 15.5547 132.545 15.5547V18.8385H131.724C130.732 18.8385 130.014 19.078 129.501 19.5226C128.988 19.9673 128.748 20.7883 128.748 21.9171V28.0743H125.636V15.7599H128.748V17.6755C129.159 16.9572 129.672 16.4783 130.322 16.102Z" fill="#6AE2E5"/>
<path d="M141.918 28.0402L137.745 22.7724V28.0402H134.632V11.5869H137.745V20.9595L141.884 15.7259H145.92L140.481 21.9173L145.954 28.0744H141.918V28.0402Z" fill="#6AE2E5"/>
<path d="M149.648 27.698C148.862 27.3218 148.212 26.8429 147.733 26.2271C147.254 25.6114 147.015 24.9273 146.98 24.1405H150.127C150.196 24.6194 150.435 24.9957 150.812 25.3036C151.222 25.6114 151.735 25.7825 152.351 25.7825C152.932 25.7825 153.411 25.6798 153.753 25.4404C154.095 25.2009 154.266 24.8931 154.266 24.5168C154.266 24.1063 154.061 23.8327 153.651 23.6274C153.24 23.4222 152.59 23.217 151.701 22.9775C150.777 22.7381 150.025 22.5328 149.443 22.2934C148.862 22.0539 148.349 21.6777 147.938 21.1988C147.528 20.7199 147.288 20.0358 147.288 19.2148C147.288 18.5307 147.493 17.915 147.87 17.3335C148.246 16.7861 148.828 16.3415 149.546 15.9994C150.264 15.6573 151.154 15.5205 152.146 15.5205C153.616 15.5205 154.779 15.8968 155.669 16.6151C156.558 17.3335 157.037 18.3254 157.106 19.5911H154.13C154.095 19.1122 153.89 18.7017 153.514 18.4281C153.138 18.1544 152.659 17.9834 152.043 17.9834C151.496 17.9834 151.051 18.086 150.743 18.2912C150.435 18.4965 150.298 18.8043 150.298 19.1464C150.298 19.5569 150.504 19.8647 150.914 20.1042C151.325 20.3094 151.975 20.5489 152.864 20.7541C153.753 20.9935 154.506 21.1988 155.053 21.4382C155.635 21.6777 156.148 22.0539 156.558 22.5328C156.969 23.0459 157.208 23.6959 157.208 24.5168C157.208 25.2352 157.003 25.8509 156.627 26.4324C156.216 26.9797 155.669 27.4244 154.95 27.7664C154.232 28.0743 153.343 28.2453 152.385 28.2453C151.325 28.2453 150.435 28.0743 149.648 27.698Z" fill="#6AE2E5"/>
<path d="M159.329 24.8929V22.43L166.615 12.0312H170.241V22.1906H172.191V24.8929H170.241V28.0399H167.128V24.8929H159.329ZM167.333 15.3493L162.784 22.1564H167.333V15.3493Z" fill="#3F3F72"/>
<path d="M191.483 12.5103V28.04H188.37V17.9491L184.197 28.04H181.837L177.664 17.9491V28.04H174.551V12.5103H178.074L183 24.0721L187.926 12.5103H191.483Z" fill="#3F3F72"/>
<path d="M205.918 22.8065H196.922C196.99 23.6959 197.298 24.38 197.845 24.8931C198.393 25.4062 199.077 25.6456 199.864 25.6456C201.027 25.6456 201.848 25.1325 202.326 24.1405H205.679C205.337 25.3378 204.653 26.2956 203.626 27.0823C202.6 27.8348 201.369 28.2453 199.898 28.2453C198.701 28.2453 197.64 27.9717 196.717 27.4586C195.759 26.9455 195.041 26.1929 194.527 25.2352C194.014 24.2774 193.741 23.1486 193.741 21.8829C193.741 20.6173 194.014 19.4885 194.527 18.5307C195.041 17.5729 195.759 16.8204 196.717 16.3073C197.64 15.7942 198.735 15.5205 199.932 15.5205C201.095 15.5205 202.155 15.76 203.079 16.273C204.003 16.7861 204.721 17.5045 205.234 18.4281C205.747 19.3516 205.987 20.412 205.987 21.6093C206.021 22.0539 205.987 22.4644 205.918 22.8065ZM202.771 20.7199C202.771 19.9331 202.463 19.2832 201.916 18.8043C201.369 18.3254 200.65 18.086 199.829 18.086C199.043 18.086 198.393 18.3254 197.88 18.7701C197.367 19.2148 197.024 19.8989 196.922 20.7199H202.771Z" fill="#3F3F72"/>
<path d="M55.2385 40.9705C54.828 40.8337 54.4859 40.6627 54.2465 40.4232L54.5544 39.7391C54.7938 39.9443 55.0675 40.1154 55.4437 40.2522C55.7858 40.389 56.1621 40.4574 56.5383 40.4574C57.0514 40.4574 57.3935 40.389 57.6671 40.218C57.9066 40.0469 58.0434 39.8417 58.0434 39.5338C58.0434 39.3286 57.975 39.1576 57.8382 39.0207C57.7014 38.8839 57.5303 38.7813 57.3593 38.7129C57.1541 38.6445 56.8804 38.5761 56.5383 38.4734C56.0937 38.3708 55.7174 38.2682 55.4437 38.1314C55.1701 38.0288 54.9306 37.8577 54.7254 37.6183C54.5202 37.3788 54.4175 37.1052 54.4175 36.6947C54.4175 36.3868 54.4859 36.079 54.657 35.8395C54.828 35.5659 55.0675 35.3607 55.4095 35.2238C55.7516 35.087 56.1621 34.9844 56.6752 34.9844C57.0172 34.9844 57.3935 35.0186 57.7356 35.1212C58.0776 35.2238 58.3855 35.3264 58.6249 35.4975L58.3513 36.1816C58.1118 36.0106 57.8382 35.908 57.5303 35.8053C57.2567 35.7369 56.983 35.6685 56.6752 35.6685C56.1963 35.6685 55.82 35.7711 55.5806 35.9422C55.3411 36.1132 55.2043 36.3526 55.2043 36.6263C55.2043 36.8315 55.2727 37.0026 55.4095 37.1394C55.5463 37.2762 55.7174 37.3788 55.9226 37.4472C56.1279 37.5157 56.4015 37.5841 56.7436 37.6867C57.1883 37.7893 57.5645 37.8919 57.8382 38.0288C58.1118 38.1314 58.3513 38.3024 58.5565 38.5076C58.7618 38.7471 58.8644 39.0207 58.8644 39.397C58.8644 39.7049 58.7618 40.0127 58.5907 40.2522C58.4197 40.5258 58.146 40.7311 57.804 40.8679C57.4619 41.0047 57.0172 41.1073 56.5041 41.1073C56.0937 41.1758 55.649 41.1073 55.2385 40.9705Z" fill="#323258"/>
<path d="M64.7479 36.5576V41.1071H63.9612V40.423C63.7901 40.6624 63.5849 40.8334 63.3112 40.9703C63.0376 41.1071 62.7297 41.1755 62.4219 41.1755C61.8061 41.1755 61.3273 41.0045 60.9852 40.6624C60.6431 40.3203 60.4721 39.8414 60.4721 39.1915V36.5918H61.293V39.0889C61.293 39.5336 61.3957 39.8756 61.6009 40.0809C61.8061 40.3203 62.114 40.423 62.4903 40.423C62.935 40.423 63.277 40.2861 63.5165 40.0125C63.7559 39.7388 63.8927 39.3968 63.8927 38.8837V36.5576H64.7479Z" fill="#323258"/>
<path d="M67.5528 40.8677C67.1765 40.6624 66.9029 40.3888 66.6976 40.0467C66.4924 39.7046 66.3898 39.2942 66.3898 38.8495C66.3898 38.4048 66.4924 37.9943 66.6976 37.6523C66.9029 37.3102 67.1765 37.0365 67.5528 36.8313C67.9291 36.6261 68.3396 36.5234 68.7842 36.5234C69.1947 36.5234 69.571 36.5919 69.8788 36.7629C70.1867 36.9339 70.4604 37.1734 70.6314 37.4812L70.0157 37.8917C69.8788 37.6865 69.7078 37.5154 69.5026 37.4128C69.2973 37.3102 69.0579 37.2418 68.7842 37.2418C68.4764 37.2418 68.2369 37.3102 67.9975 37.447C67.758 37.5838 67.587 37.7549 67.4502 37.9943C67.3134 38.2338 67.2449 38.5074 67.2449 38.8153C67.2449 39.1231 67.3134 39.431 67.4502 39.6704C67.587 39.9099 67.758 40.1151 67.9975 40.2177C68.2369 40.3546 68.5106 40.423 68.7842 40.423C69.0579 40.423 69.2631 40.3546 69.5026 40.2519C69.7078 40.1493 69.8788 39.9783 70.0157 39.7731L70.6314 40.1493C70.4604 40.4572 70.2209 40.6966 69.8788 40.8677C69.571 41.0387 69.1947 41.1071 68.7842 41.1071C68.3396 41.1413 67.8949 41.0387 67.5528 40.8677Z" fill="#323258"/>
<path d="M72.8891 40.8677C72.5128 40.6624 72.2392 40.3888 72.034 40.0467C71.8287 39.7046 71.7261 39.2942 71.7261 38.8495C71.7261 38.4048 71.8287 37.9943 72.034 37.6523C72.2392 37.3102 72.5128 37.0365 72.8891 36.8313C73.2654 36.6261 73.6759 36.5234 74.1206 36.5234C74.531 36.5234 74.9073 36.5919 75.2152 36.7629C75.523 36.9339 75.7967 37.1734 75.9677 37.4812L75.352 37.8917C75.2152 37.6865 75.0441 37.5154 74.8389 37.4128C74.6337 37.3102 74.3942 37.2418 74.1206 37.2418C73.8127 37.2418 73.5733 37.3102 73.3338 37.447C73.0944 37.5838 72.9233 37.7549 72.7865 37.9943C72.6497 38.2338 72.5813 38.5074 72.5813 38.8153C72.5813 39.1231 72.6497 39.431 72.7865 39.6704C72.9233 39.9099 73.0944 40.1151 73.3338 40.2177C73.5733 40.3546 73.8469 40.423 74.1206 40.423C74.3942 40.423 74.5994 40.3546 74.8389 40.2519C75.0441 40.1493 75.2152 39.9783 75.352 39.7731L75.9677 40.1493C75.7967 40.4572 75.5572 40.6966 75.2152 40.8677C74.9073 41.0387 74.531 41.1071 74.1206 41.1071C73.6417 41.1413 73.2312 41.0387 72.8891 40.8677Z" fill="#323258"/>
<path d="M81.5433 39.1231H77.849C77.8832 39.5336 78.0885 39.8415 78.3621 40.0809C78.67 40.3204 79.0463 40.4572 79.4909 40.4572C80.0382 40.4572 80.4829 40.2862 80.7908 39.9099L81.2355 40.423C81.0302 40.6624 80.7908 40.8335 80.4829 40.9703C80.1751 41.1071 79.833 41.1755 79.4567 41.1755C78.9778 41.1755 78.5674 41.0729 78.1911 40.8677C77.8148 40.6624 77.5412 40.3888 77.3359 40.0467C77.1307 39.7046 77.0281 39.2942 77.0281 38.8495C77.0281 38.4048 77.1307 38.0285 77.3359 37.6523C77.5412 37.276 77.8148 37.0365 78.1569 36.8313C78.4989 36.6261 78.8752 36.5234 79.3199 36.5234C79.7646 36.5234 80.1409 36.6261 80.4829 36.8313C80.825 37.0365 81.0986 37.3102 81.2697 37.6523C81.4407 37.9943 81.5433 38.4048 81.5433 38.8495C81.5775 38.9179 81.5433 39.0205 81.5433 39.1231ZM78.3279 37.5838C78.0543 37.8233 77.9174 38.1311 77.849 38.5416H80.7566C80.7224 38.1654 80.5513 37.8575 80.2777 37.618C80.004 37.3786 79.6962 37.2418 79.2857 37.2418C78.9436 37.2076 78.6016 37.3444 78.3279 37.5838Z" fill="#323258"/>
<path d="M83.4589 41.0045C83.1168 40.9019 82.8432 40.7651 82.6379 40.6282L82.98 39.9783C83.1852 40.1151 83.4247 40.252 83.6983 40.3204C83.972 40.3888 84.2798 40.4572 84.5535 40.4572C85.2718 40.4572 85.6139 40.252 85.6139 39.8415C85.6139 39.7047 85.5797 39.6021 85.4771 39.4994C85.3745 39.3968 85.2718 39.3626 85.1008 39.3284C84.9298 39.2942 84.7587 39.26 84.4851 39.1916C84.1088 39.1232 83.8352 39.0547 83.5957 38.9863C83.3563 38.9179 83.151 38.7811 83.0142 38.6101C82.8774 38.439 82.7747 38.1996 82.7747 37.8575C82.7747 37.447 82.9458 37.105 83.2878 36.8655C83.6299 36.6261 84.0746 36.4893 84.6561 36.4893C84.964 36.4893 85.2718 36.5235 85.5797 36.5919C85.8875 36.6603 86.127 36.7629 86.3322 36.8997L85.9902 37.5497C85.6139 37.3102 85.1692 37.2076 84.6903 37.2076C84.3482 37.2076 84.0746 37.276 83.9036 37.3786C83.7325 37.4812 83.6299 37.6523 83.6299 37.8233C83.6299 37.9601 83.6983 38.097 83.8009 38.1654C83.9036 38.2338 84.0404 38.3022 84.1772 38.3364C84.314 38.3706 84.5535 38.439 84.8271 38.4732C85.2034 38.5416 85.4771 38.6101 85.7165 38.6785C85.956 38.7469 86.127 38.8837 86.298 39.0547C86.4691 39.2258 86.5375 39.4652 86.5375 39.7731C86.5375 40.1836 86.3664 40.5256 86.0244 40.7651C85.6823 41.0045 85.2034 41.1413 84.5877 41.1413C84.143 41.1413 83.8009 41.1071 83.4589 41.0045Z" fill="#323258"/>
<path d="M88.2477 41.0045C87.9057 40.9019 87.632 40.7651 87.461 40.6282L87.8031 39.9783C88.0083 40.1151 88.2477 40.252 88.5214 40.3204C88.7951 40.423 89.1029 40.4572 89.3766 40.4572C90.0949 40.4572 90.4712 40.252 90.4712 39.8415C90.4712 39.7047 90.437 39.6021 90.3343 39.4994C90.2317 39.431 90.1291 39.3626 89.9581 39.3284C89.8212 39.2942 89.616 39.26 89.3424 39.1916C88.9661 39.1232 88.6924 39.0547 88.453 38.9863C88.2135 38.9179 88.0083 38.7811 87.8715 38.6101C87.7347 38.439 87.632 38.1996 87.632 37.8575C87.632 37.447 87.8031 37.105 88.1451 36.8655C88.4872 36.6261 88.9319 36.4893 89.5134 36.4893C89.8212 36.4893 90.1291 36.5235 90.437 36.5919C90.7448 36.6603 90.9843 36.7629 91.1895 36.8997L90.8474 37.5497C90.4712 37.3102 90.0265 37.2076 89.5476 37.2076C89.2055 37.2076 88.9319 37.276 88.7608 37.3786C88.5898 37.4812 88.4872 37.6523 88.4872 37.8233C88.4872 37.9601 88.5214 38.097 88.6582 38.1654C88.7608 38.268 88.8977 38.3022 89.0345 38.3364C89.1713 38.3706 89.4108 38.439 89.6844 38.4732C90.0607 38.5416 90.3343 38.6101 90.5738 38.6785C90.8132 38.7469 90.9843 38.8837 91.1553 39.0547C91.3263 39.2258 91.3947 39.4652 91.3947 39.7731C91.3947 40.1836 91.2237 40.5256 90.8816 40.7651C90.5396 41.0045 90.0607 41.1413 89.445 41.1413C88.9319 41.1413 88.5898 41.1071 88.2477 41.0045Z" fill="#323258"/>
<path d="M93.7209 36.1813V36.5918H95.0549V37.2759H93.7551V41.1413H92.9341V37.2759H92.1474V36.5918H92.9341V36.1813C92.9341 35.7366 93.0709 35.3604 93.3104 35.1209C93.5498 34.8815 93.9261 34.7104 94.405 34.7104C94.576 34.7104 94.7471 34.7447 94.9181 34.7789C95.0891 34.8131 95.226 34.8815 95.3286 34.9841L95.0891 35.5998C94.9181 35.463 94.6786 35.3946 94.4734 35.3946C93.9603 35.3946 93.7209 35.634 93.7209 36.1813Z" fill="#323258"/>
<path d="M100.562 36.5576V41.1071H99.7754V40.423C99.6043 40.6624 99.3991 40.8334 99.1254 40.9703C98.8518 41.1071 98.5439 41.1755 98.2361 41.1755C97.6204 41.1755 97.1415 41.0045 96.7994 40.6624C96.4573 40.3203 96.2863 39.8414 96.2863 39.1915V36.5918H97.1073V39.0889C97.1073 39.5336 97.2099 39.8756 97.4151 40.0809C97.6204 40.3203 97.9282 40.423 98.3045 40.423C98.7492 40.423 99.0912 40.2861 99.3307 40.0125C99.5701 39.7388 99.7069 39.3968 99.7069 38.8837V36.5576H100.562Z" fill="#323258"/>
<path d="M102.649 34.7446H103.47V41.0728H102.649V34.7446Z" fill="#323258"/>
<path d="M108.464 35.1211H109.319V41.1072H108.464V35.1211Z" fill="#323258"/>
<path d="M115.305 37.0365C115.647 37.3786 115.818 37.8575 115.818 38.5074V41.1071H114.997V38.61C114.997 38.1654 114.895 37.8233 114.689 37.618C114.484 37.3786 114.176 37.276 113.8 37.276C113.355 37.276 113.013 37.4128 112.74 37.6523C112.466 37.9259 112.363 38.268 112.363 38.7811V41.1071H111.542V36.5576H112.329V37.2418C112.5 37.0023 112.705 36.8313 113.013 36.6945C113.287 36.5576 113.629 36.5234 113.971 36.5234C114.518 36.5234 114.963 36.6945 115.305 37.0365Z" fill="#323258"/>
<path d="M121.77 36.5576L119.786 41.1071H118.931L116.947 36.5576H117.802L119.341 40.1835L120.949 36.5576H121.77Z" fill="#323258"/>
<path d="M127.004 39.1231H123.309C123.344 39.5336 123.549 39.8415 123.823 40.0809C124.13 40.3204 124.507 40.4572 124.951 40.4572C125.499 40.4572 125.943 40.2862 126.251 39.9099L126.696 40.423C126.491 40.6624 126.251 40.8335 125.943 40.9703C125.636 41.1071 125.293 41.1755 124.917 41.1755C124.438 41.1755 124.028 41.0729 123.652 40.8677C123.275 40.6624 123.002 40.3888 122.796 40.0467C122.591 39.7046 122.489 39.2942 122.489 38.8495C122.489 38.4048 122.591 38.0285 122.796 37.6523C123.002 37.276 123.275 37.0365 123.617 36.8313C123.959 36.6261 124.336 36.5234 124.78 36.5234C125.225 36.5234 125.601 36.6261 125.943 36.8313C126.285 37.0365 126.559 37.3102 126.73 37.6523C126.901 37.9943 127.004 38.4048 127.004 38.8495C127.038 38.9179 127.038 39.0205 127.004 39.1231ZM123.788 37.5838C123.515 37.8233 123.378 38.1311 123.309 38.5416H126.217C126.183 38.1654 126.012 37.8575 125.738 37.618C125.464 37.3786 125.157 37.2418 124.746 37.2418C124.404 37.2076 124.062 37.3444 123.788 37.5838Z" fill="#323258"/>
<path d="M128.919 41.0045C128.577 40.9019 128.304 40.7651 128.098 40.6282L128.44 39.9783C128.646 40.1151 128.885 40.252 129.159 40.3204C129.432 40.3888 129.74 40.4572 130.014 40.4572C130.732 40.4572 131.074 40.252 131.074 39.8415C131.074 39.7047 131.04 39.6021 130.937 39.4994C130.835 39.3968 130.732 39.3626 130.561 39.3284C130.39 39.2942 130.219 39.26 129.945 39.1916C129.569 39.1232 129.296 39.0547 129.056 38.9863C128.817 38.9179 128.611 38.7811 128.475 38.6101C128.338 38.439 128.235 38.1996 128.235 37.8575C128.235 37.447 128.406 37.105 128.748 36.8655C129.09 36.6261 129.535 36.4893 130.116 36.4893C130.424 36.4893 130.732 36.5235 131.04 36.5919C131.348 36.6603 131.587 36.7629 131.793 36.8997L131.451 37.5497C131.074 37.3102 130.63 37.2076 130.151 37.2076C129.809 37.2076 129.535 37.276 129.364 37.3786C129.193 37.4812 129.09 37.6523 129.09 37.8233C129.09 37.9601 129.159 38.097 129.261 38.1654C129.364 38.2338 129.501 38.3022 129.638 38.3364C129.774 38.3706 130.014 38.439 130.287 38.4732C130.664 38.5416 130.937 38.6101 131.177 38.6785C131.416 38.7469 131.587 38.8837 131.758 39.0547C131.929 39.2258 131.998 39.4652 131.998 39.7731C131.998 40.1836 131.827 40.5256 131.485 40.7651C131.143 41.0045 130.664 41.1413 130.048 41.1413C129.603 41.1413 129.261 41.1071 128.919 41.0045Z" fill="#323258"/>
<path d="M136.034 40.8333C135.897 40.9359 135.761 41.0043 135.589 41.0727C135.418 41.1411 135.247 41.1411 135.042 41.1411C134.598 41.1411 134.221 41.0043 133.982 40.7648C133.742 40.5254 133.606 40.1833 133.606 39.7044V37.2074H132.819V36.5232H133.606V35.5312H134.426V36.5232H135.726V37.2074H134.426V39.6702C134.426 39.9097 134.495 40.1149 134.598 40.2175C134.734 40.3544 134.905 40.4228 135.111 40.4228C135.35 40.4228 135.589 40.3544 135.761 40.2175L136.034 40.8333Z" fill="#323258"/>
<path d="M137.539 35.5315C137.437 35.4289 137.368 35.292 137.368 35.1552C137.368 35.0184 137.437 34.8816 137.539 34.7789C137.642 34.6763 137.779 34.6079 137.95 34.6079C138.121 34.6079 138.258 34.6421 138.36 34.7447C138.463 34.8474 138.531 34.9842 138.531 35.121C138.531 35.292 138.463 35.3947 138.36 35.4973C138.258 35.5999 138.121 35.6683 137.95 35.6683C137.779 35.7025 137.642 35.6341 137.539 35.5315ZM137.539 36.5577H138.36V41.1071H137.539V36.5577Z" fill="#323258"/>
<path d="M144.21 37.0365C144.552 37.3786 144.723 37.8575 144.723 38.5074V41.1071H143.902V38.61C143.902 38.1654 143.799 37.8233 143.594 37.618C143.389 37.3786 143.081 37.276 142.67 37.276C142.226 37.276 141.884 37.4128 141.61 37.6523C141.336 37.9259 141.234 38.268 141.234 38.7811V41.1071H140.413V36.5576H141.199V37.2418C141.37 37.0023 141.576 36.8313 141.884 36.6945C142.157 36.5576 142.499 36.5234 142.841 36.5234C143.423 36.5234 143.867 36.6945 144.21 37.0365Z" fill="#323258"/>
<path d="M151.119 36.5576V40.4914C151.119 41.2781 150.914 41.8596 150.538 42.2359C150.162 42.6122 149.546 42.8174 148.793 42.8174C148.349 42.8174 147.972 42.749 147.562 42.6464C147.186 42.5438 146.878 42.3727 146.604 42.1333L146.98 41.4834C147.186 41.6544 147.459 41.8254 147.767 41.928C148.075 42.0307 148.383 42.0991 148.725 42.0991C149.238 42.0991 149.648 41.9622 149.888 41.7228C150.127 41.4834 150.264 41.1071 150.264 40.594V40.2519C150.059 40.4914 149.819 40.6624 149.546 40.765C149.272 40.8676 148.964 40.9361 148.622 40.9361C148.178 40.9361 147.801 40.8334 147.459 40.6624C147.117 40.4914 146.843 40.2177 146.638 39.8756C146.433 39.5336 146.33 39.1573 146.33 38.7468C146.33 38.3364 146.433 37.9259 146.638 37.618C146.843 37.276 147.117 37.0365 147.459 36.8313C147.801 36.6602 148.212 36.5576 148.622 36.5576C148.964 36.5576 149.272 36.626 149.58 36.7286C149.888 36.8655 150.127 37.0365 150.298 37.276V36.5918H151.119V36.5576ZM149.58 40.0125C149.819 39.8756 149.99 39.7046 150.127 39.4994C150.264 39.2599 150.333 39.0205 150.333 38.7468C150.333 38.3021 150.196 37.9601 149.888 37.6864C149.58 37.4128 149.238 37.276 148.759 37.276C148.314 37.276 147.904 37.4128 147.63 37.6864C147.322 37.9601 147.186 38.3021 147.186 38.7468C147.186 39.0205 147.254 39.2941 147.391 39.4994C147.528 39.7046 147.699 39.9099 147.938 40.0125C148.178 40.1493 148.451 40.1835 148.759 40.1835C149.067 40.1835 149.341 40.1493 149.58 40.0125Z" fill="#323258"/>
<path d="M153.001 41.0047C152.898 40.9021 152.83 40.7652 152.83 40.5942C152.83 40.4232 152.898 40.2863 153.001 40.1837C153.103 40.0811 153.24 40.0127 153.411 40.0127C153.582 40.0127 153.719 40.0811 153.822 40.1837C153.924 40.2863 153.993 40.4232 153.993 40.5942C153.993 40.7652 153.924 40.9021 153.822 41.0047C153.719 41.1073 153.582 41.1757 153.411 41.1757C153.24 41.1415 153.103 41.1073 153.001 41.0047Z" fill="#323258"/>
<path d="M155.429 41.0047C155.327 40.9021 155.258 40.7652 155.258 40.5942C155.258 40.4232 155.327 40.2863 155.429 40.1837C155.532 40.0811 155.669 40.0127 155.84 40.0127C156.011 40.0127 156.148 40.0811 156.25 40.1837C156.353 40.2863 156.421 40.4232 156.421 40.5942C156.421 40.7652 156.353 40.9021 156.25 41.0047C156.148 41.1073 156.011 41.1757 155.84 41.1757C155.703 41.1415 155.566 41.1073 155.429 41.0047Z" fill="#323258"/>
<path d="M157.892 41.0047C157.79 40.9021 157.721 40.7652 157.721 40.5942C157.721 40.4232 157.79 40.2863 157.892 40.1837C157.995 40.0811 158.132 40.0127 158.303 40.0127C158.474 40.0127 158.611 40.0811 158.713 40.1837C158.816 40.2863 158.884 40.4232 158.884 40.5942C158.884 40.7652 158.816 40.9021 158.713 41.0047C158.611 41.1073 158.474 41.1757 158.303 41.1757C158.166 41.1415 158.029 41.1073 157.892 41.0047Z" fill="#323258"/>
<path d="M160.697 35.1211H163.228C163.878 35.1211 164.426 35.2579 164.904 35.4974C165.383 35.7368 165.76 36.1131 166.033 36.5578C166.307 37.0025 166.444 37.5155 166.444 38.1313C166.444 38.747 166.307 39.2259 166.033 39.7048C165.76 40.1494 165.383 40.5257 164.904 40.7652C164.426 41.0046 163.844 41.1414 163.228 41.1414H160.697V35.1211ZM163.16 40.3547C163.639 40.3547 164.084 40.2521 164.426 40.081C164.768 39.91 165.076 39.6364 165.281 39.2943C165.486 38.9522 165.589 38.576 165.589 38.1313C165.589 37.6866 165.486 37.3103 165.281 36.9682C165.076 36.6262 164.802 36.3525 164.426 36.1815C164.049 36.0105 163.639 35.9078 163.16 35.9078H161.552V40.4231H163.16V40.3547Z" fill="#323258"/>
<path d="M172.225 39.1231H168.53C168.565 39.5336 168.77 39.8415 169.044 40.0809C169.351 40.3204 169.728 40.4572 170.172 40.4572C170.72 40.4572 171.164 40.2862 171.472 39.9099L171.917 40.423C171.712 40.6624 171.472 40.8335 171.164 40.9703C170.856 41.1071 170.514 41.1755 170.138 41.1755C169.659 41.1755 169.249 41.0729 168.872 40.8677C168.496 40.6624 168.223 40.3888 168.017 40.0467C167.812 39.7046 167.709 39.2942 167.709 38.8495C167.709 38.4048 167.812 38.0285 168.017 37.6523C168.223 37.3102 168.496 37.0365 168.838 36.8313C169.18 36.6261 169.557 36.5234 170.001 36.5234C170.446 36.5234 170.822 36.6261 171.164 36.8313C171.506 37.0365 171.78 37.3102 171.951 37.6523C172.122 37.9943 172.225 38.4048 172.225 38.8495C172.225 38.9179 172.225 39.0205 172.225 39.1231ZM169.009 37.5838C168.736 37.8233 168.599 38.1311 168.53 38.5416H171.438C171.404 38.1654 171.233 37.8575 170.959 37.618C170.685 37.3786 170.378 37.2418 169.967 37.2418C169.591 37.2076 169.283 37.3444 169.009 37.5838Z" fill="#323258"/>
<path d="M173.901 34.7446H174.722V41.0728H173.901V34.7446Z" fill="#323258"/>
<path d="M176.808 35.5315C176.706 35.4289 176.637 35.292 176.637 35.1552C176.637 35.0184 176.706 34.8816 176.808 34.7789C176.911 34.6763 177.048 34.6079 177.219 34.6079C177.39 34.6079 177.527 34.6421 177.629 34.7447C177.732 34.8474 177.8 34.9842 177.8 35.121C177.8 35.292 177.732 35.3947 177.629 35.4973C177.527 35.5999 177.39 35.6683 177.219 35.6683C177.048 35.6683 176.911 35.6341 176.808 35.5315ZM176.774 36.5577H177.595V41.1071H176.774V36.5577Z" fill="#323258"/>
<path d="M183.684 36.5576L181.7 41.1071H180.845L178.861 36.5576H179.716L181.255 40.1835L182.863 36.5576H183.684Z" fill="#323258"/>
<path d="M188.917 39.1231H185.223C185.257 39.5336 185.463 39.8415 185.736 40.0809C186.044 40.3204 186.42 40.4572 186.865 40.4572C187.412 40.4572 187.857 40.2862 188.165 39.9099L188.61 40.423C188.404 40.6624 188.165 40.8335 187.857 40.9703C187.549 41.1071 187.207 41.1755 186.831 41.1755C186.352 41.1755 185.941 41.0729 185.565 40.8677C185.189 40.6624 184.915 40.3888 184.71 40.0467C184.505 39.7046 184.402 39.2942 184.402 38.8495C184.402 38.4048 184.505 38.0285 184.71 37.6523C184.915 37.3102 185.189 37.0365 185.531 36.8313C185.873 36.6261 186.249 36.5234 186.694 36.5234C187.139 36.5234 187.515 36.6261 187.857 36.8313C188.199 37.0365 188.473 37.3102 188.644 37.6523C188.815 37.9943 188.917 38.4048 188.917 38.8495C188.952 38.9179 188.952 39.0205 188.917 39.1231ZM185.736 37.5838C185.463 37.8233 185.326 38.1311 185.257 38.5416H188.165C188.131 38.1654 187.96 37.8575 187.686 37.618C187.412 37.3786 187.105 37.2418 186.694 37.2418C186.318 37.2076 185.976 37.3444 185.736 37.5838Z" fill="#323258"/>
<path d="M192.03 36.7287C192.304 36.5919 192.646 36.5234 193.057 36.5234V37.3102C193.022 37.3102 192.954 37.3102 192.851 37.3102C192.407 37.3102 192.065 37.447 191.791 37.7207C191.551 37.9943 191.415 38.3706 191.415 38.8495V41.1071H190.594V36.5576H191.38V37.3102C191.517 37.0707 191.757 36.8655 192.03 36.7287Z" fill="#323258"/>
<path d="M198.598 39.1231H194.904C194.938 39.5336 195.143 39.8415 195.417 40.0809C195.725 40.3204 196.101 40.4572 196.546 40.4572C197.093 40.4572 197.537 40.2862 197.845 39.9099L198.29 40.423C198.085 40.6624 197.845 40.8335 197.537 40.9703C197.23 41.1071 196.888 41.1755 196.511 41.1755C196.032 41.1755 195.622 41.0729 195.246 40.8677C194.869 40.6624 194.596 40.3888 194.39 40.0467C194.185 39.7046 194.083 39.2942 194.083 38.8495C194.083 38.4048 194.185 38.0285 194.39 37.6523C194.596 37.3102 194.869 37.0365 195.211 36.8313C195.554 36.6261 195.93 36.5234 196.374 36.5234C196.819 36.5234 197.195 36.6261 197.537 36.8313C197.88 37.0365 198.153 37.3102 198.324 37.6523C198.495 37.9943 198.598 38.4048 198.598 38.8495C198.598 38.9179 198.598 39.0205 198.598 39.1231ZM195.382 37.5838C195.109 37.8233 194.972 38.1311 194.904 38.5416H197.811C197.777 38.1654 197.606 37.8575 197.332 37.618C197.059 37.3786 196.751 37.2418 196.34 37.2418C195.964 37.2076 195.656 37.3444 195.382 37.5838Z" fill="#323258"/>
<path d="M204.55 34.7446V41.0728H203.763V40.3545C203.592 40.5939 203.353 40.7992 203.079 40.936C202.805 41.0728 202.497 41.1412 202.155 41.1412C201.711 41.1412 201.334 41.0386 200.958 40.8334C200.616 40.6281 200.342 40.3545 200.137 40.0124C199.932 39.6704 199.829 39.2599 199.829 38.8152C199.829 38.3705 199.932 37.96 200.137 37.618C200.342 37.2759 200.616 37.0023 200.958 36.797C201.3 36.5918 201.711 36.5234 202.155 36.5234C202.497 36.5234 202.771 36.5918 203.045 36.6944C203.318 36.8312 203.558 37.0023 203.729 37.2417V34.7446H204.55ZM202.976 40.2519C203.216 40.1151 203.387 39.944 203.524 39.6704C203.66 39.4309 203.729 39.1573 203.729 38.8494C203.729 38.5415 203.66 38.2679 203.524 38.0285C203.387 37.789 203.216 37.5838 202.976 37.4811C202.737 37.3443 202.497 37.2759 202.19 37.2759C201.882 37.2759 201.642 37.3443 201.403 37.4811C201.163 37.618 200.992 37.789 200.856 38.0285C200.719 38.2679 200.65 38.5415 200.65 38.8494C200.65 39.1573 200.719 39.4309 200.856 39.6704C200.992 39.9098 201.163 40.1151 201.403 40.2519C201.642 40.3887 201.882 40.4571 202.19 40.4571C202.497 40.4229 202.737 40.3545 202.976 40.2519Z" fill="#323258"/>
<path d="M23.0845 27.1852L23.0503 18.4625L18.8087 25.6116C18.6719 25.8511 18.3983 25.9879 18.1246 25.9879H16.8248C16.5511 25.9879 16.3117 25.8511 16.1406 25.6116L11.899 18.7019V27.1509C11.899 27.4588 11.6596 27.6982 11.3517 27.6982H7.86265C7.55479 27.6982 7.31535 27.4588 7.31535 27.1509V10.8002C7.31535 10.4924 7.55479 10.2529 7.86265 10.2529H11.0096C11.2491 10.2529 11.4543 10.3555 11.557 10.5608L17.5089 19.8992L23.2898 10.595C23.4266 10.3898 23.6318 10.2871 23.8371 10.2871H26.9841C27.2919 10.2871 27.5314 10.5266 27.5314 10.8344L27.5656 27.1852C27.5656 27.493 27.3261 27.7325 27.0183 27.7325H23.5634C23.324 27.6982 23.0845 27.4588 23.0845 27.1852Z" fill="#1EAF6D"/>
<path d="M3.62098 20.6857C1.84224 15.4521 5.67337 8.47395 13.404 5.53219C21.4084 2.52202 27.8734 6.48998 29.6863 11.7236C30.1994 13.1945 30.1652 14.768 29.7547 16.3072C31.1572 13.776 31.6019 11.0052 30.7467 8.40554C28.6601 2.31678 21.1689 -2.3011 11.8647 1.22217C2.86844 4.60862 -1.57841 12.7156 0.508187 18.8043C1.39756 21.3698 3.62098 23.1827 6.46012 24.2089C5.12606 23.3196 4.09987 22.1223 3.62098 20.6857Z" fill="#1EAF6D"/>
</svg>
