<?xml version="1.0" encoding="UTF-8"?>
<svg width="64px" height="34px" viewBox="0 0 64 34" version="1.1" xmlns="http://www.w3.org/2000/svg" xmlns:xlink="http://www.w3.org/1999/xlink">
    <title>TN-Home-wht</title>
    <g id="TN-Design" stroke="none" stroke-width="1" fill="none" fill-rule="evenodd">
        <g id="Times-HP-GoTo-Final-Design" transform="translate(-160, -88)">
            <g id="Group-4" transform="translate(0, 38)">
                <g id="Group-41" transform="translate(160, 0)">
                    <g id="TN-Home-wht" transform="translate(0, 50)">
                        <g id="home" transform="translate(38, 5)" fill="#FFFFFF" fill-rule="nonzero">
                            <path d="M22.2107831,24 L14.8072928,24 L14.8072928,17.1253305 L10.576727,17.1253305 L10.576727,24 L3.17323678,24 L3.17323678,12.8947647 C3.17323678,12.6027051 3.40999789,12.3659439 3.70205751,12.3659439 C3.99411714,12.3659439 4.23087824,12.6027051 4.23087824,12.8947647 L4.23087824,22.9423585 L9.51908554,22.9423585 L9.51908554,16.0676891 L15.8649343,16.0676891 L15.8649343,22.9423585 L21.1531416,22.9423585 L21.1531416,13.4235854 C21.1531416,13.1315258 21.3899027,12.8947647 21.6819623,12.8947647 C21.9740219,12.8947647 22.2107831,13.1315258 22.2107831,13.4235854 L22.2107831,24 Z" id="Path"></path>
                            <path d="M24.8548867,12.8947647 C24.7187371,12.8950771 24.5877942,12.8424588 24.4894716,12.7482813 L12.6920099,1.46377578 L0.894548256,12.7482813 C0.683535178,12.9502406 0.348754975,12.942901 0.146795744,12.7318879 C-0.0551634859,12.5208748 -0.0478238916,12.1860946 0.163189187,11.9841354 L12.6920099,0 L25.2203018,11.9836066 C25.376537,12.1328939 25.4262233,12.3622201 25.3457878,12.562785 C25.2653523,12.7633499 25.0709796,12.8947975 24.8548867,12.8947647 Z M20.6243209,6.54891592 C20.3322612,6.54891592 20.0955001,6.31215481 20.0955001,6.02009519 L20.0955001,2.84717081 L16.9225758,2.84717081 C16.6305161,2.84717081 16.393755,2.6104097 16.393755,2.31835008 C16.393755,2.02629045 16.6305161,1.78952935 16.9225758,1.78952935 L21.1531416,1.78952935 L21.1531416,6.02009519 C21.1531416,6.31215481 20.9163805,6.54891592 20.6243209,6.54891592 Z" id="Shape"></path>
                        </g>
                        <g id="tn">
                            <rect id="Rectangle" fill="#F20017" x="0" y="0" width="34" height="34"></rect>
                            <rect id="Rectangle-Copy" fill="#124A9B" x="17" y="0" width="17" height="34"></rect>
                            <g id="T" transform="translate(4.108, 10.428)" fill="#FFFFFF" fill-rule="nonzero">
                                <polygon id="Path" points="6.444 2.988 9.36 2.988 9.36 0 0 0 0 2.988 2.916 2.988 2.916 13.572 6.444 13.572"></polygon>
                            </g>
                            <g id="N" transform="translate(18.652, 10.428)" fill="#FFFFFF" fill-rule="nonzero">
                                <polygon id="Path" points="0 13.572 3.528 13.572 3.528 5.256 3.564 5.256 10.026 13.572 13.554 13.572 13.554 0 10.026 0 10.026 8.298 9.99 8.298 3.528 0 0 0"></polygon>
                            </g>
                        </g>
                    </g>
                </g>
            </g>
        </g>
    </g>
</svg>