<svg xmlns="http://www.w3.org/2000/svg" xml:space="preserve" width="326" height="73" style="shape-rendering:geometricPrecision;text-rendering:geometricPrecision;image-rendering:optimizeQuality;fill-rule:evenodd;clip-rule:evenodd" viewBox="0 0 12917 2898.67"><defs><style>.fil17{fill:#383838;fill-rule:nonzero}</style></defs><g id="Layer_x0020_1"><g id="_262465200"><path id="_262453584" d="M2206.79 648.302c57.611 56.392 109.503 122.31 157.351 197.516l286.703-177.148c-61.23-97.375-135.561-185.091-218.068-266.778L2206.79 648.301z" style="fill:#e31930"/><path id="_262453704" d="M1949.93 455.318c78.952 41.849 147.597 94.8 209.627 148.278l229.736-241.917c-93.694-79.63-190.116-150.956-293.302-201.682l-146.062 295.321z" style="fill:#009c3f"/><path id="_262454136" d="m48.087 1822 269.134-87.876c-24.384-93.636-37.173-188.07-37.33-283.375L.123 1436.673C-1.605 1568.92 14.937 1697.241 48.086 1822z" style="fill:#e48e16"/><path id="_262453944" d="M1654.67 343.964c89.561 17.58 168.295 48.155 235.887 80.715l146.559-293.117c-101.765-46.345-208.898-81.927-322.429-104.685l-60.016 317.087z" style="fill:#e4a10b"/><path id="_262454472" d="m1852.25 2482.6 123.491 311.479c103.471-41.548 199.991-93.853 288.806-158.092l-203.472-270.653c-62.237 43.691-131.735 82.848-208.825 117.265z" style="fill:#ff3e25"/><path id="_262454424" d="M1589.03 2890.63c112.348-11.538 220.033-34.664 321.962-72.099l-118.238-312.409c-67.033 25.606-143.296 45.463-232.398 57.32l28.674 327.188z" style="fill:#00b0dc"/><path id="_262454160" d="M1329.61 319.628c85.205-5.745 170.396-2.126 255.577 11.13l54.121-316.444c-113.24-15.458-225.37-18.944-336.143-7.763l26.444 313.077z" style="fill:#ff152a"/><path id="_262455072" d="m2.11 1371.52 279.207 16.185c2.471-97.787 23.496-189.7 49.77-279.6l-265.064-93.812c-36.763 118.586-57.7 237.67-63.914 357.227z" style="fill:#1d7837"/><path id="_262454496" d="M1195.56 2877.85c110.043 18.313 218.966 25.038 326.585 18.203l-29.648-325.772c-82.089 5.391-163.364 3.025-243.726-8.054l-53.211 315.623z" style="fill:#ffb800"/><path id="_262454736" d="m904.972 103.198 115.59 282.063c80.514-29.228 162.966-49.157 247.681-59.737l-30.939-311.235c-115.512 16.946-226.44 46.175-332.332 88.908z" style="fill:#00336a"/><path id="_262454664" d="M818.732 2756.74c100.956 49.88 204.182 84.836 309.325 107.201l54.985-313c-79.885-16.324-157.612-40.652-232.818-74.332L818.732 2756.74z" style="fill:#a81136"/><path id="_262455096" d="M558.723 302.816 735.16 539.518c69.99-51.84 143.211-93.526 218.891-127.488L843.006 129.872c-101.287 48.043-197.362 103.754-284.282 172.944z" style="fill:#00548e"/><path id="_262454568" d="M491.083 2539.71c82.315 72.912 171.574 135.047 267.459 186.897l129.671-280.24c-71.168-37.002-138.179-80.818-200.272-132.68L491.082 2539.71z" style="fill:#ff6d17"/><path id="_262454904" d="M233.654 2241.2c57.23 88.201 125.312 171.815 205.461 250.333l202.039-218.91c-62.51-57.282-113.958-119.501-159.532-184.338L233.654 2241.2z" style="fill:#ff0c88"/><path id="_262455816" d="m277.082 594.255 232.195 168.897c49.19-66.047 106.829-127.441 174.699-183.198L501.071 350.221c-86.674 73.781-161.139 155.251-223.988 244.034z" style="fill:#00bc38"/><path id="_262455504" d="M66.081 1884.55c32.389 102.931 76.357 201.223 130.07 295.61l251.578-142.609c-44.297-73.674-82.334-149.599-108.336-229.841l-273.312 76.84z" style="fill:#ff9e04"/><path id="_262455720" d="m89.495 945.249 265.105 95.304c30.113-78.537 69.18-153.218 116.666-224.268L234.97 655.434c-58.101 92.234-108.103 188.155-145.475 289.815z" style="fill:#007ec0"/><path id="_262464456" class="fil17" d="M6763.07 2399.18h127.636c22.377 0 41.57 1.077 57.75 3.313 16.094 2.154 31.5 7.457 46.217 15.988 14.717 8.534 27.627 20.215 38.644 35.043 11.015 14.912 19.623 32.06 25.905 51.362 6.369 19.303 9.467 42.748 9.467 70.251 0 52.439-12.908 95.517-38.815 129.234-25.905 33.717-70.402 50.617-133.66 50.617H6763.07V2399.18zm48.971 313.558h79.182c16.094 0 30.553-.91 43.204-2.899 12.738-1.905 25.562-7.207 38.559-15.74 13.08-8.616 23.84-22.7 32.445-42.25 8.607-19.55 12.825-45.481 12.825-77.706 0-17.728-1.636-34.38-4.907-49.87-3.27-15.41-9.294-29.494-18.16-42.169-8.778-12.756-18.934-22.035-30.38-27.917-11.448-5.964-22.55-9.527-33.394-10.852-10.844-1.243-24.787-1.905-41.742-1.905h-77.632v271.308z"/><path id="_2624644561" class="fil17" d="M7174.63 2754.99h-45.442v-257.474h45.442v257.474zm0-306.268h-45.442v-49.54h45.442v49.54z"/><path id="_26246445612" class="fil17" d="M7393.24 2569.59c-2.067-14.083-8.005-24.686-17.816-31.728-9.812-7.042-23.497-10.52-40.968-10.52-17.299 0-31.327 2.815-42 8.45-10.673 5.715-16.008 13.916-16.008 24.769 0 10.189 4.304 17.479 12.738 21.87 8.52 4.39 25.303 9.693 50.347 15.988 28.231 6.96 49.317 13.173 63.43 18.474 14.03 5.302 24.961 12.841 32.706 22.451 7.832 9.609 11.792 23.03 11.792 40.179 0 22.947-9.812 42.331-29.263 57.99-19.536 15.74-45.615 23.526-78.147 23.526-33.997 0-60.504-6.876-79.611-20.71-19.02-13.835-30.812-34.628-35.115-62.297l45.099-6.545c2.323 17.977 9.295 31.397 20.828 40.344 11.446 8.864 27.54 13.338 48.281 13.338 19.797 0 35.03-4.06 45.616-12.013 10.585-8.035 15.923-17.81 15.923-29.243 0-7.787-2.497-14-7.317-18.723-4.905-4.722-11.016-8.2-18.331-10.52-7.315-2.403-23.755-6.544-49.316-12.51-37.956-8.78-63-19.384-75.221-31.811-12.221-12.426-18.246-27.338-18.246-44.652 0-21.539 8.864-39.267 26.68-53.185 17.816-13.917 41.742-20.876 71.864-20.876 31.93 0 56.804 6.047 74.533 18.142 17.73 12.012 28.316 29.99 31.844 53.931l-44.322 5.881z"/><path id="_262464456123" class="fil17" d="M7721.23 2665.93c-5.853 32.806-19.279 56.913-40.278 72.156-21.087 15.326-44.841 22.947-71.435 22.947-38.816 0-68.767-12.26-89.938-36.782-21.26-24.521-31.846-56.995-31.846-97.423 0-33.468 6.111-60.309 18.333-80.44 12.136-20.13 27.456-34.296 45.787-42.497 18.246-8.119 37.524-12.26 57.664-12.26 27.627 0 51.209 6.875 70.745 20.627 19.624 13.752 31.673 33.965 36.234 60.724l-43.894 6.543c-4.56-17.313-11.876-30.32-22.118-39.101-10.157-8.698-23.152-13.088-38.902-13.088-25.39 0-44.668 8.615-57.749 25.929-13.083 17.314-19.71 41.504-19.71 72.57 0 31.728 6.455 56.25 19.365 73.48 12.823 17.232 31.328 25.848 55.599 25.848 19.45 0 34.77-5.385 45.96-16.154 11.187-10.77 18.245-26.924 21.085-48.464l45.098 5.385z"/><path id="_2624644561234" class="fil17" d="M7869.27 2491.63c36.148 0 66.098 11.349 89.852 33.965 23.841 22.699 35.718 54.925 35.718 96.594 0 50.7-12.824 86.488-38.557 107.447-25.735 20.959-54.739 31.397-87.013 31.397-33.824 0-63.086-10.77-87.959-32.226-24.96-21.539-37.353-55.67-37.353-102.476 0-45.314 12.05-79.03 36.063-101.315 24.012-22.203 53.79-33.385 89.249-33.385zm0 233.533c25.905 0 45.529-9.279 59.042-27.67 13.425-18.473 20.138-42.747 20.138-72.818 0-32.226-7.574-56.499-22.807-72.818-15.233-16.32-33.996-24.521-56.373-24.521-23.065 0-41.914 8.283-56.717 24.852-14.804 16.569-22.205 41.338-22.205 74.143 0 32.723 7.488 57.328 22.549 73.896 15.062 16.651 33.825 24.936 56.373 24.936z"/><path id="_26246445612345" class="fil17" d="M8264.39 2754.99h-40.623v-37.859h-1.205c-20.57 29.243-48.54 43.906-84 43.906-18.676 0-35.89-4.142-51.811-12.509-15.922-8.284-26.509-19.8-31.758-34.462-5.336-14.58-7.92-33.552-7.92-56.913v-159.638h45.358v142.655c0 22.865 1.119 39.185 3.356 49.044 2.324 9.858 8.263 17.976 17.816 24.355 9.554 6.461 21.001 9.61 34.255 9.61 17.212 0 33.306-5.716 48.454-17.067 15.148-11.432 22.722-35.124 22.722-70.994v-137.602h45.356v257.474z"/><path id="_262464456123456" class="fil17" d="m8478.95 2505.47-15.578 40.343c-11.274-6.378-22.29-9.526-33.05-9.526-17.04 0-29.864 7.373-38.642 21.953-8.693 14.664-13.082 35.208-13.082 61.553v135.198h-45.356v-257.474h41.311v38.77h1.033c14.459-29.74 33.394-44.651 56.717-44.651 15.493 0 31.07 4.639 46.647 13.834z"/><path id="_2624644561234567" class="fil17" d="M8655.99 2569.59c-2.067-14.083-8.005-24.686-17.816-31.728-9.812-7.042-23.497-10.52-40.968-10.52-17.299 0-31.327 2.815-42 8.45-10.673 5.715-16.008 13.916-16.008 24.769 0 10.189 4.304 17.479 12.738 21.87 8.52 4.39 25.303 9.693 50.347 15.988 28.231 6.96 49.317 13.173 63.43 18.474 14.03 5.302 24.961 12.841 32.706 22.451 7.832 9.609 11.792 23.03 11.792 40.179 0 22.947-9.812 42.331-29.263 57.99-19.536 15.74-45.615 23.526-78.147 23.526-33.997 0-60.504-6.876-79.611-20.71-19.02-13.835-30.812-34.628-35.115-62.297l45.099-6.545c2.323 17.977 9.295 31.397 20.828 40.344 11.446 8.864 27.54 13.338 48.281 13.338 19.797 0 35.03-4.06 45.616-12.013 10.585-8.035 15.923-17.81 15.923-29.243 0-7.787-2.497-14-7.317-18.723-4.905-4.722-11.016-8.2-18.331-10.52-7.315-2.403-23.755-6.544-49.316-12.51-37.956-8.78-63-19.384-75.22-31.811-12.222-12.426-18.247-27.338-18.247-44.652 0-21.539 8.864-39.267 26.68-53.185 17.816-13.917 41.742-20.876 71.864-20.876 31.93 0 56.804 6.047 74.533 18.142 17.73 12.012 28.316 29.99 31.844 53.931l-44.322 5.881z"/><path id="_26246445612345678" class="fil17" d="M8997.41 2637.27h-200.533c1.893 28.498 10.328 50.285 25.39 65.28 15.061 15.076 33.823 22.616 56.372 22.616 17.299 0 31.845-4.474 43.635-13.256 11.705-8.78 20.742-22.118 26.94-39.93l46.647 5.551c-7.574 26.924-21.432 47.552-41.57 61.884-20.225 14.414-45.443 21.621-75.652 21.621-40.193 0-71.606-11.846-94.242-35.539-22.549-23.693-33.91-56.085-33.91-97.174 0-40.676 11.017-73.564 32.964-98.831 21.947-25.184 52.758-37.859 92.606-37.859 19.537 0 38.3 4.142 56.373 12.426 18.073 8.202 33.394 22.285 46.045 42.085 12.566 19.799 18.935 50.202 18.935 91.126zm-46.647-35.953c-1.893-26.179-10.328-45.067-25.389-56.665-15.063-11.516-31.5-17.313-49.317-17.313-21.344 0-38.9 6.875-52.671 20.627-13.771 13.752-21.776 31.562-23.927 53.35h151.304z"/><path id="_262464456123456789" class="fil17" d="M9304.5 2491.63c36.148 0 66.098 11.349 89.852 33.965 23.841 22.699 35.718 54.925 35.718 96.594 0 50.7-12.824 86.488-38.557 107.447-25.735 20.959-54.739 31.397-87.013 31.397-33.824 0-63.086-10.77-87.959-32.226-24.96-21.539-37.353-55.67-37.353-102.476 0-45.314 12.05-79.03 36.063-101.315 24.012-22.203 53.79-33.385 89.249-33.385zm0 233.533c25.905 0 45.529-9.279 59.042-27.67 13.425-18.473 20.138-42.747 20.138-72.818 0-32.226-7.574-56.499-22.807-72.818-15.233-16.32-33.996-24.521-56.373-24.521-23.065 0-41.914 8.283-56.717 24.852-14.804 16.569-22.205 41.338-22.205 74.143 0 32.723 7.488 57.328 22.549 73.896 15.062 16.651 33.825 24.936 56.373 24.936z"/><path id="_26246445612345678910" class="fil17" d="M9701.34 2754.99h-45.615v-156.572c0-26.344-4.905-44.486-14.717-54.344-9.897-9.858-23.496-14.829-40.967-14.829-13.513 0-26.25 3.147-38.213 9.527-12.05 6.295-20.57 15.16-25.648 26.675-4.992 11.515-7.487 27.752-7.487 48.794v140.75h-45.443v-257.475h40.88v36.368h1.033c9.554-14.083 21.345-24.603 35.373-31.645 14.03-7.042 30.296-10.604 48.8-10.604 14.114 0 28.057 2.485 41.828 7.29 13.856 4.888 24.615 12.178 32.446 21.87 7.833 9.692 12.738 20.048 14.717 31.067 2.066 11.017 3.013 25.846 3.013 44.651v158.478z"/><path id="_2624644561234567891011" class="fil17" d="M9920.21 2399.18h127.636c22.377 0 41.57 1.077 57.75 3.313 16.094 2.154 31.5 7.457 46.217 15.988 14.717 8.534 27.627 20.215 38.644 35.043 11.015 14.912 19.623 32.06 25.905 51.362 6.369 19.303 9.467 42.748 9.467 70.251 0 52.439-12.908 95.517-38.815 129.234-25.905 33.717-70.402 50.617-133.66 50.617H9920.21V2399.18zm48.971 313.558h79.182c16.093 0 30.553-.91 43.204-2.899 12.738-1.905 25.562-7.207 38.559-15.74 13.08-8.616 23.84-22.7 32.445-42.25 8.607-19.55 12.825-45.481 12.825-77.706 0-17.728-1.636-34.38-4.907-49.87-3.27-15.41-9.294-29.494-18.16-42.169-8.778-12.756-18.934-22.035-30.38-27.917-11.448-5.964-22.55-9.527-33.394-10.852-10.844-1.243-24.787-1.905-41.742-1.905h-77.632v271.308z"/><path id="_262464456123456789101112" class="fil17" d="M10518.9 2637.27h-200.533c1.893 28.498 10.328 50.285 25.39 65.28 15.061 15.076 33.823 22.616 56.372 22.616 17.299 0 31.845-4.474 43.635-13.256 11.705-8.78 20.742-22.118 26.94-39.93l46.647 5.551c-7.574 26.924-21.432 47.552-41.57 61.884-20.225 14.414-45.443 21.621-75.652 21.621-40.193 0-71.606-11.846-94.242-35.539-22.549-23.693-33.91-56.085-33.91-97.174 0-40.676 11.017-73.564 32.964-98.831 21.947-25.184 52.758-37.859 92.606-37.859 19.537 0 38.3 4.142 56.373 12.426 18.073 8.202 33.394 22.285 46.045 42.085 12.566 19.799 18.935 50.202 18.935 91.126zm-46.647-35.953c-1.893-26.179-10.328-45.067-25.389-56.665-15.063-11.516-31.5-17.313-49.317-17.313-21.344 0-38.9 6.875-52.671 20.627-13.771 13.752-21.776 31.562-23.927 53.35h151.304z"/><path id="_26246445612345678910111213" class="fil17" d="m10790.9 2497.51-101.126 257.474h-42.345l-101.644-257.474h47.94l55.167 148.951c10.414 28.167 16.697 47.303 18.676 57.326h1.034c2.667-10.355 7.315-24.272 13.856-41.752l62.053-164.525h46.39z"/><path id="_2624644561234567891011121314" class="fil17" d="M11064.3 2637.27h-200.533c1.893 28.498 10.328 50.285 25.39 65.28 15.061 15.076 33.823 22.616 56.372 22.616 17.299 0 31.845-4.474 43.635-13.256 11.705-8.78 20.742-22.118 26.94-39.93l46.647 5.551c-7.574 26.924-21.432 47.552-41.57 61.884-20.225 14.414-45.443 21.621-75.652 21.621-40.193 0-71.606-11.846-94.242-35.539-22.549-23.693-33.91-56.085-33.91-97.174 0-40.676 11.017-73.564 32.964-98.831 21.947-25.184 52.758-37.859 92.606-37.859 19.537 0 38.3 4.142 56.373 12.426 18.073 8.202 33.394 22.285 46.045 42.085 12.566 19.799 18.935 50.202 18.935 91.126zm-46.647-35.953c-1.893-26.179-10.328-45.067-25.389-56.665-15.063-11.516-31.5-17.313-49.317-17.313-21.344 0-38.9 6.875-52.671 20.627-13.771 13.752-21.776 31.562-23.927 53.35h151.304z"/><path id="_262464456123456789101112131415" class="fil17" d="M11164.4 2754.99h-45.5v-355.81h45.5z"/><path id="_26246445612345678910111213141516" class="fil17" d="M11342.6 2491.63c36.148 0 66.098 11.349 89.852 33.965 23.841 22.699 35.719 54.925 35.719 96.594 0 50.7-12.825 86.488-38.558 107.447-25.735 20.959-54.739 31.397-87.013 31.397-33.824 0-63.086-10.77-87.959-32.226-24.96-21.539-37.353-55.67-37.353-102.476 0-45.314 12.05-79.03 36.063-101.315 24.012-22.203 53.79-33.385 89.249-33.385zm0 233.533c25.905 0 45.529-9.279 59.042-27.67 13.425-18.473 20.138-42.747 20.138-72.818 0-32.226-7.574-56.499-22.807-72.818-15.233-16.32-33.996-24.521-56.373-24.521-23.065 0-41.914 8.283-56.717 24.852-14.804 16.569-22.205 41.338-22.205 74.143 0 32.723 7.488 57.328 22.549 73.896 15.062 16.651 33.825 24.936 56.373 24.936z"/><path id="_2624644561234567891011121314151617" class="fil17" d="M11563.7 2530.73c17.041-26.012 42.516-39.102 76.426-39.102 35.115 0 62.914 12.261 83.226 36.782 20.31 24.522 30.467 56.416 30.467 95.766 0 41.918-11.188 75.22-33.739 99.825-22.548 24.686-50.176 37.03-82.966 37.03-28.746 0-51.812-11.017-69.11-32.971h-1.206v125.921h-45.443V2497.51h41.398v33.22h.947zm70.401 194.431c21.173 0 38.73-8.45 52.586-25.433 13.857-16.9 20.742-42.084 20.742-75.552 0-31.563-6.627-55.835-20.053-72.818-13.34-16.984-30.468-25.517-51.296-25.517-21.515 0-39.16 9.528-53.016 28.415-13.942 18.972-20.828 43.493-20.828 73.565 0 31.894 6.628 56.084 19.882 72.57 13.34 16.485 30.64 24.77 51.983 24.77z"/><path id="_262464456123456789101112131415161718" class="fil17" d="M12170.7 2754.99h-45.356v-162.62c0-11.93-.861-22.202-2.497-30.735-1.72-8.45-6.024-15.988-12.996-22.533-6.97-6.544-17.901-9.857-32.705-9.857-17.815 0-33.135 6.047-46.13 17.976-12.91 12.012-19.365 31.397-19.365 58.238v149.53h-45.442v-167.424c0-22.368-4.045-37.693-12.222-45.895-8.176-8.284-19.709-12.426-34.685-12.426-19.45 0-35.459 6.545-48.024 19.468-12.48 12.923-18.762 37.113-18.762 72.57v133.707h-45.357v-257.474h40.795v35.871h1.033c18.16-27.835 44.753-41.752 79.955-41.752 19.623 0 35.802 3.81 48.54 11.349 12.653 7.456 21.861 18.805 27.542 33.8 19.88-30.073 47.335-45.15 82.45-45.15 27.8 0 48.542 7.208 62.483 21.622 13.859 14.415 20.743 36.036 20.743 64.783v176.952z"/><path id="_26246445612345678910111213141516171819" class="fil17" d="M12470.8 2637.27h-200.533c1.893 28.498 10.328 50.285 25.39 65.28 15.061 15.076 33.823 22.616 56.372 22.616 17.299 0 31.845-4.474 43.635-13.256 11.705-8.78 20.742-22.118 26.94-39.93l46.647 5.551c-7.574 26.924-21.432 47.552-41.57 61.884-20.225 14.414-45.443 21.621-75.652 21.621-40.193 0-71.606-11.846-94.242-35.539-22.549-23.693-33.91-56.085-33.91-97.174 0-40.676 11.017-73.564 32.964-98.831 21.947-25.184 52.758-37.859 92.606-37.859 19.537 0 38.3 4.142 56.373 12.426 18.073 8.202 33.394 22.285 46.045 42.085 12.566 19.799 18.935 50.202 18.935 91.126zm-46.647-35.953c-1.893-26.179-10.328-45.067-25.389-56.665-15.063-11.516-31.5-17.313-49.317-17.313-21.344 0-38.9 6.875-52.671 20.627-13.771 13.752-21.776 31.562-23.927 53.35h151.304z"/><path id="_2624644561234567891011121314151617181920" class="fil17" d="M12744 2754.99h-45.615v-156.572c0-26.344-4.905-44.486-14.717-54.344-9.897-9.858-23.496-14.829-40.967-14.829-13.513 0-26.25 3.147-38.213 9.527-12.05 6.295-20.57 15.16-25.648 26.675-4.992 11.515-7.487 27.752-7.487 48.794v140.75h-45.443v-257.475h40.88v36.368h1.033c9.554-14.083 21.345-24.603 35.373-31.645 14.03-7.042 30.296-10.604 48.8-10.604 14.114 0 28.057 2.485 41.828 7.29 13.856 4.888 24.615 12.178 32.446 21.87 7.833 9.692 12.738 20.048 14.717 31.067 2.066 11.017 3.013 25.846 3.013 44.651v158.478z"/><path id="_262464456123456789101112131415161718192021" class="fil17" d="M12917 2754.49c-13.425 2.569-24.786 3.894-33.995 3.894-19.88 0-34.34-3.397-43.377-10.107-9.123-6.71-14.631-15.243-16.697-25.598-1.98-10.356-3.012-24.687-3.012-43.16v-148.29h-32.963v-33.716h32.963v-64.12l45.442-26.427v90.547h45.357v33.716h-45.357v150.691c0 12.923 1.379 22.119 4.133 27.587 2.753 5.384 9.81 8.117 21.085 8.117 6.54 0 13.253-.662 20.139-1.987l6.282 38.852z"/><path id="_262468656" class="fil17" d="M979.447 2319.03h255.328V774.12h179.572c86.512.465 163.673 12.106 231.947 34.922 68.742 23.28 128.131 54.942 179.104 95.45 50.505 40.043 92.592 86.605 126.261 138.755 33.202 52.148 58.454 108.021 74.822 166.688 16.835 59.134 24.785 118.734 24.785 178.798v41.905c0 38.18-4.676 80.551-13.563 127.113-9.352 46.561-23.848 94.52-43.021 143.875-19.174 48.89-44.426 96.383-74.355 142.012-30.395 46.096-66.87 87.07-108.958 123.389-42.087 36.783-90.254 65.652-145.435 87.07-54.714 21.418-115.973 32.592-184.249 33.059-3.273 0-7.481-.467-12.626-1.397-5.144-.931-9.352-1.398-12.626-1.398h-143.095v234.67h143.095c99.607-3.258 188.925-18.158 267.489-44.233 78.561-26.074 147.77-60.064 207.628-102.9 59.858-42.371 111.765-90.33 155.255-142.944 43.024-53.08 79.498-107.557 108.493-164.362 29.46-56.805 52.373-112.678 69.676-167.156 16.836-54.477 28.994-104.763 36.477-150.86 7.48-46.095 11.223-84.741 10.755-115.937v-36.318c-.936-106.16-17.302-203.008-49.1-290.544-32.27-87.535-75.29-165.293-129.537-232.807-54.245-67.514-115.038-124.319-182.377-170.88-67.34-46.097-136.55-81.483-207.63-105.23-71.549-23.746-139.824-35.852-205.76-35.852H979.445v1760.02z"/><path id="_262469328" class="fil17" d="m2632.46 1793.92 88.136 158.956 755.446-411.268c-27.7-49.622-59.596-95.878-95.69-138.771-36.513-42.893-76.803-80.32-121.71-113.12-44.488-32.38-93.591-57.611-146.473-76.114-53.3-18.082-110.799-27.334-172.494-27.755-51.202 0-103.663 7.15-156.965 21.867-53.72 14.298-104.922 36.586-154.027 66.863-49.523 29.857-93.591 68.546-132.622 115.222-39.031 46.678-70.089 101.766-92.752 166.106-23.083 64.34-34.835 137.51-35.254 220.352.419 80.32 15.11 154.33 43.648 221.194 28.538 66.862 68.83 124.894 120.452 174.096 51.622 48.78 112.058 87.047 181.307 113.96 69.249 26.913 144.375 40.37 226.214 40.79 74.706-.42 141.437-10.933 200.614-30.697 59.596-20.185 111.218-47.098 155.287-80.74 44.486-33.222 81-70.647 110.379-111.438 29.378-40.791 51.203-82.422 65.891-124.474 14.69-42.473 21.824-82.002 21.824-119.428v-47.939l-198.935-17.662c-13.428 53.827-28.118 101.345-44.067 143.398-16.367 41.631-36.933 76.954-61.695 105.971-25.181 29.016-57.498 50.883-97.369 66.02-40.29 15.14-90.652 22.71-151.928 22.71-59.176-.42-111.218-10.514-156.125-30.699-44.908-20.184-82.26-47.098-112.898-80.74-30.217-34.062-52.882-72.329-67.99-114.382-15.529-42.051-23.083-85.365-23.083-129.94 0-50.462 7.554-98.822 23.083-145.92 15.108-47.098 37.773-89.57 67.99-126.996 30.637-37.426 67.99-67.284 112.898-89.57 44.907-21.868 96.95-33.222 156.125-33.643 39.45.42 71.768 4.205 97.788 11.775 26.021 7.15 47.006 16.82 62.955 28.175 16.368 11.354 29.798 23.549 39.87 35.744 10.492 12.195 20.145 23.129 28.54 32.8l-536.368 305.298z"/><path id="_262470648" class="fil17" d="m3447.42 1205.84 391.083 981.493c12.195 29.437 26.913 54.247 44.996 74.011 18.082 19.765 37.426 34.484 58.873 44.576 21.446 10.093 42.893 15.14 65.18 15.14 23.129 0 45.416-5.047 67.704-15.14 21.867-10.092 42.052-24.811 60.554-44.576 18.504-19.764 33.642-44.574 45.837-74.011l373.422-981.493H4322.94l-305.296 857.861-338.099-857.861H3447.42z"/><path id="_262471224" class="fil17" d="M5394.78 723.633v946.17c0 63.498-5.467 123.212-17.24 179.561-11.776 55.929-30.278 105.551-55.51 148.444-25.23 42.893-58.032 76.955-98.401 101.345-40.791 24.39-89.571 37.006-146.762 37.426-32.8.42-68.965-2.944-108.494-10.092-39.53-7.57-77.796-22.708-115.643-45.416-37.847-22.709-70.647-56.771-98.402-102.187-27.754-44.996-46.257-105.13-55.93-180.403-.42-4.205-1.261-9.252-2.522-15.139-1.682-5.888-2.524-10.933-2.524-15.139.422-58.031 10.513-109.756 29.437-155.172 19.343-45.416 44.996-83.684 76.955-114.802 32.38-31.538 67.704-55.087 106.393-71.489 39.107-15.978 78.216-24.39 117.745-24.39 41.63.421 82.001 5.468 121.109 15.14 39.108 9.672 74.01 21.446 105.13 35.323 31.119 13.878 55.93 27.334 74.012 40.37v-214.465c-16.82-12.196-37.847-23.55-63.078-34.063-24.811-10.513-58.031-19.343-99.243-26.071-41.21-6.729-95.037-10.093-160.639-10.514-41.21 0-84.944 7.15-130.78 21.027-45.838 13.876-90.412 35.323-134.147 63.918-43.733 28.175-83.682 64.34-119.427 107.233-35.324 43.314-63.92 94.196-84.944 152.227-21.447 58.453-32.38 124.474-32.802 198.065.422 3.785 1.262 8.831 2.524 14.298 1.682 5.467 2.523 10.933 2.523 15.98 0 50.462 5.888 100.925 18.082 151.387 12.195 50.462 31.54 98.822 58.033 145.08 26.912 45.836 61.816 87.469 104.709 124.053 43.313 37.005 95.878 66.862 157.694 89.57 61.817 22.708 134.146 36.166 216.569 39.95h20.184c66.022-.42 124.894-10.093 177.038-29.016 52.145-18.924 98.402-44.155 137.931-76.115 39.53-31.958 73.171-67.703 100.925-107.232 28.175-39.529 50.883-79.9 68.545-121.53 17.242-41.632 30.277-81.581 38.267-119.848 8.41-37.846 12.195-71.909 12.195-101.346V723.631h-219.51z"/><path id="_261262736" class="fil17" d="M5801.49 955.348c.42 26.072 6.729 47.938 18.924 65.6 11.774 17.242 27.334 30.698 46.678 39.53 18.923 8.83 39.107 13.457 60.554 13.457 20.606 0 40.37-4.626 58.873-13.457 18.923-8.832 34.062-22.288 46.258-39.53 11.773-17.662 18.082-39.528 18.502-65.6-.42-24.39-7.149-44.575-20.185-60.555-13.037-15.98-29.015-28.176-47.94-36.165-18.922-7.99-37.426-11.775-55.508-11.775-23.97 0-44.996 3.786-63.919 11.775-18.924 7.99-34.062 20.185-44.995 36.165-11.355 15.98-16.822 36.164-17.242 60.555zm17.662 1339.78h196.803v-1087.46h-196.803v1087.46z"/><path id="_2612627361" class="fil17" d="M6180.69 2102.95v194.702h444.069c10.513 0 23.129.84 37.847 2.523 14.718 1.262 29.857 2.102 45.416 2.522 36.164.422 74.433-2.522 114.802-8.83 40.37-6.308 78.637-19.344 115.222-38.688 36.584-19.344 66.862-48.36 91.253-87.047 23.97-38.268 38.267-89.571 42.051-153.911.42-59.294-10.513-110.176-32.8-152.65-22.287-42.892-59.293-80.318-111.018-113.54-51.724-33.22-121.53-64.76-209.418-95.457-22.708-7.149-47.94-13.878-76.535-20.185-28.174-6.728-57.19-13.877-85.785-21.867-29.016-7.99-55.93-17.662-80.74-29.437-24.391-11.774-44.156-26.072-59.294-43.313-15.14-16.82-22.708-37.847-23.129-62.237.42-24.39 9.252-43.313 26.914-56.35 17.662-13.456 41.21-22.707 70.647-27.754 29.437-5.046 62.657-7.57 99.242-7.149h428.931v-176.618h-411.269c-58.452-.42-113.12 2.523-164.423 9.251-51.304 6.73-96.72 20.185-135.829 39.53-39.107 19.764-69.805 48.36-92.093 86.626-22.288 37.847-33.642 87.89-34.063 150.126.42 58.452 13.458 108.914 39.11 150.545 26.07 42.053 62.657 76.956 110.175 105.131 47.098 27.754 103.448 50.463 168.63 68.125 50.882 13.035 97.98 25.651 141.714 37.846 43.314 12.195 81.58 25.652 114.381 39.95 32.8 14.297 58.453 31.118 76.955 50.462 18.083 18.923 27.334 42.051 27.754 68.965-.42 26.073-7.99 45.837-22.287 59.293-14.297 13.457-32.38 22.709-54.667 27.754-22.288 4.626-45.417 7.149-69.386 6.729-11.354 0-23.129-.84-35.324-2.523-12.194-1.262-23.97-2.102-35.323-2.524h-461.731z"/><path id="_261261512" class="fil17" d="M7143.14 1761.01c0 39.529 5.046 82.002 15.98 128.259 10.933 46.256 28.595 92.094 52.985 137.93 24.39 45.837 56.35 88.31 96.72 126.998 40.37 39.109 89.57 70.647 148.023 95.878 58.453 24.811 126.998 39.109 206.055 43.314h229.603v-194.28H7733.55c-4.205.42-9.672 1.262-16.82 2.524-6.73 1.682-13.036 2.522-18.504 2.522-48.78-.42-91.252-7.99-127.838-22.708-36.585-15.139-67.283-34.903-92.514-59.714-25.231-24.81-45.416-52.144-60.976-82-15.558-30.278-26.913-60.976-33.642-91.674-7.147-31.12-10.512-60.135-10.512-87.048.42-53.827 8.831-100.503 25.232-139.192 16.4-39.11 37.846-71.91 64.76-98.402 26.913-26.072 56.349-47.098 88.309-62.657 31.958-15.56 63.918-26.493 95.458-33.222 31.96-6.728 60.975-10.093 87.047-9.671h158.956v-194.28h-211.941c-75.694.42-142.557 13.036-201.43 36.585-58.452 23.969-108.914 55.508-151.386 95.037-42.473 39.53-76.955 83.263-104.29 130.361-27.333 47.52-47.518 95.038-60.554 142.977-13.456 47.939-19.765 92.094-19.765 132.463z"/><path id="_2612615121" class="fil17" d="M7925.17 1720.64c0 82.002 11.354 158.536 34.062 229.604 22.709 71.067 58.032 133.725 105.971 187.552 47.939 54.247 108.914 96.298 183.767 126.576 74.432 30.698 163.162 46.258 266.61 46.678 71.068-.42 135.406-12.195 192.597-34.903 57.191-23.129 107.233-53.826 150.126-92.935 43.314-39.109 79.057-83.263 108.074-132.043 28.595-49.202 50.463-100.084 64.76-153.07 14.718-52.565 21.867-104.288 21.867-154.75-.421-82.843-11.775-155.593-34.062-218.671-22.288-62.658-52.565-116.905-91.253-161.9-38.267-44.576-82.422-81.58-131.202-109.756-49.2-28.175-100.925-49.2-154.751-62.658-54.247-13.456-108.074-19.764-161.48-19.764-73.17.421-142.976 13.037-208.998 38.268-66.442 25.651-125.314 62.236-177.46 109.756-51.723 47.938-92.514 105.97-122.791 173.254-29.858 67.703-44.996 143.818-45.837 228.763zm211.942 0c0-40.37 5.887-81.16 17.662-122.792 12.194-41.211 31.538-79.478 58.452-114.802 26.493-34.903 61.816-63.498 105.97-84.945 43.734-21.446 97.561-32.8 161.06-33.221 76.535.42 141.295 15.56 194.28 44.995 52.986 29.858 92.935 71.069 120.269 124.474 27.333 52.986 41.21 115.222 41.21 186.291-.42 76.534-9.67 140.454-28.173 191.756-18.504 51.304-44.155 91.674-76.956 121.951-32.38 29.858-70.226 50.884-113.12 63.92-42.893 12.615-88.729 18.923-137.51 18.502-54.248-.42-100.926-8.83-140.455-25.651-39.107-16.4-71.909-38.689-97.98-66.442-26.493-28.176-47.098-59.294-62.238-93.776-15.558-34.483-26.492-69.807-32.8-105.971-6.729-36.585-9.671-71.069-9.671-104.29z"/><path id="_261262112" class="fil17" d="M9187.05 1204.63v625.734c.42 88.73 11.774 164.843 34.482 227.921 23.13 63.078 55.088 114.382 96.72 153.911 41.632 39.95 90.832 68.965 147.602 87.467 56.77 18.504 119.427 27.755 187.972 27.755 67.704-.42 128.68-12.615 183.347-36.164 54.247-23.97 100.925-56.77 140.033-98.402 38.687-42.052 68.545-90.412 89.15-145.5 21.026-54.667 31.54-113.54 31.54-176.618V1204.63H9901.09v643.395c0 31.54-5.466 63.5-16.4 96.72-10.513 33.221-26.492 63.92-47.518 92.093-21.026 28.596-47.098 51.724-77.796 68.966-30.698 17.661-65.601 26.914-105.55 27.334-55.93-.42-103.87-11.354-144.659-33.642-40.79-21.867-71.909-52.565-94.197-92.514-22.287-39.949-33.22-87.048-33.64-141.295v-661.057h-194.28z"/><path id="_2612621121" class="fil17" d="M10256.7 1204.63v1087.46h196.804v-497.054c-.421-22.709.42-50.883 2.102-84.104 2.103-33.22 7.57-68.545 16.4-105.55 8.832-37.007 23.13-72.75 43.734-106.813 20.185-34.062 48.78-63.078 84.945-87.468 36.586-23.97 83.264-39.95 140.454-47.52h52.986v-194.28h-75.693c-35.324.422-67.284 5.047-95.878 14.72-29.017 9.251-54.249 21.446-76.536 36.165-21.867 14.718-40.79 29.856-55.929 45.836-15.56 15.98-27.753 31.118-36.584 44.575v-105.97H10256.7z"/><path id="_262456296" class="fil17" d="M10843.1 2102.39v194.702h444.069c10.513 0 23.129.84 37.847 2.523 14.718 1.262 29.857 2.102 45.416 2.522 36.164.422 74.432-2.522 114.802-8.83 40.37-6.308 78.637-19.344 115.222-38.688 36.584-19.344 66.862-48.36 91.253-87.047 23.97-38.268 38.267-89.571 42.051-153.911.42-59.294-10.513-110.176-32.8-152.65-22.287-42.892-59.293-80.318-111.018-113.54-51.724-33.22-121.53-64.76-209.418-95.457-22.708-7.149-47.94-13.878-76.535-20.185-28.174-6.728-57.19-13.877-85.785-21.867-29.016-7.99-55.93-17.662-80.74-29.437-24.391-11.774-44.156-26.072-59.294-43.313-15.14-16.82-22.708-37.847-23.129-62.237.42-24.39 9.252-43.313 26.914-56.35 17.662-13.456 41.21-22.707 70.647-27.754 29.437-5.046 62.657-7.57 99.242-7.149h428.931v-176.618h-411.269c-58.452-.42-113.12 2.523-164.423 9.251-51.304 6.73-96.72 20.185-135.829 39.53-39.107 19.764-69.805 48.36-92.093 86.626-22.288 37.847-33.642 87.89-34.063 150.126.42 58.452 13.458 108.914 39.11 150.545 26.07 42.053 62.657 76.956 110.175 105.131 47.098 27.754 103.448 50.463 168.63 68.125 50.882 13.035 97.98 25.651 141.714 37.846 43.314 12.195 81.58 25.652 114.381 39.95 32.8 14.297 58.453 31.118 76.955 50.462 18.083 18.923 27.334 42.051 27.754 68.965-.42 26.073-7.99 45.837-22.287 59.293-14.298 13.457-32.38 22.709-54.667 27.754-22.288 4.626-45.417 7.149-69.386 6.729-11.354 0-23.129-.84-35.324-2.523-12.195-1.262-23.97-2.102-35.323-2.524h-461.731z"/><path id="_2624562961" class="fil17" d="m12054.1 1797.51 88.31 158.956 756.935-411.268c-27.754-49.622-59.713-95.878-95.878-138.771-36.586-42.893-76.955-80.32-121.95-113.12-44.576-32.38-93.777-57.611-146.762-76.114-53.406-18.082-111.018-27.335-172.835-27.755-51.303 0-103.868 7.15-157.274 21.867-53.826 14.298-105.129 36.586-154.33 66.863-49.622 29.857-93.777 68.545-132.884 115.222-39.109 46.677-70.228 101.766-92.935 166.106-23.129 64.34-34.904 137.51-35.324 220.352.42 80.32 15.14 154.33 43.735 221.194 28.594 66.862 68.965 124.894 120.689 174.096 51.723 48.78 112.278 87.047 181.665 113.96 69.385 26.913 144.658 40.37 226.659 40.79 74.853-.42 141.715-10.933 201.009-30.697 59.713-20.185 111.438-47.098 155.593-80.74 44.574-33.222 81.16-70.647 110.596-111.438 29.436-40.791 51.304-82.422 66.022-124.474 14.718-42.473 21.867-82.002 21.867-119.428v-47.939l-199.327-17.662c-13.457 53.827-28.175 101.345-44.154 143.398-16.4 41.631-37.007 76.954-61.818 105.971-25.23 29.016-57.61 50.883-97.56 66.02-40.37 15.14-90.832 22.71-152.229 22.71-59.292-.42-111.437-10.514-156.432-30.699-44.996-20.184-82.422-47.098-113.12-80.74-30.278-34.062-52.986-72.329-68.124-114.382-15.56-42.051-23.13-85.365-23.13-129.94 0-50.462 7.57-98.822 23.13-145.92 15.138-47.098 37.846-89.57 68.124-126.996 30.698-37.426 68.124-67.284 113.12-89.57 44.996-21.868 97.14-33.222 156.432-33.643 39.529.42 71.909 4.205 97.982 11.775 26.072 7.15 47.098 16.82 63.078 28.175 16.4 11.354 29.857 23.549 39.949 35.744 10.513 12.195 20.185 23.129 28.595 32.8l-537.425 305.298z"/></g></g></svg>